#N canvas 503 221 1251 396 12;
#X declare -path else;
#X obj 321 50 inlet~ SIGNAL;
#X obj 321 172 outlet~ SIGNAL;
#X obj 884 50 declare -path else;
#X obj 63 187 hsl 128 19 0 100 0 0 \$0-attack_gui \$0-attack_gui_set
ATTACK(ms) 5 10 0 10 #dfdfdf #000000 #000000 0 1;
#X obj 63 217 hsl 128 19 0 200 0 0 \$0-release_gui \$0-release_gui_set
RELEASE(ms) 5 10 0 10 #dfdfdf #000000 #000000 0 1;
#X obj 63 247 hsl 128 19 0 12 0 0 \$0-gain_gui \$0-gain_gui_set GAIN(dB)
5 10 0 10 #dfdfdf #000000 #000000 0 1;
#X obj 63 127 hsl 128 19 -100 0 0 0 \$0-thresh_gui \$0-thresh_gui_set
THRES(dB) 5 10 0 10 #dfdfdf #000000 #000000 0 1;
#X obj 63 157 hsl 128 19 1 10 0 0 \$0-ratio_gui \$0-ratio_gui_set RATIO
5 10 0 10 #dfdfdf #000000 #000000 0 1;
#X floatatom 204 187 5 0 1000 0 - \$0-attack_gui_set \$0-attack_gui
0;
#X floatatom 204 217 5 0 1000 0 - \$0-release_gui_set \$0-release_gui
0;
#X floatatom 204 247 5 0 0 0 - \$0-gain_gui_set \$0-gain_gui 0;
#X floatatom 204 127 5 -100 0 0 - \$0-thresh_gui_set \$0-thresh_gui
0;
#X floatatom 204 157 5 1 100 0 - \$0-ratio_gui_set \$0-ratio_gui 0
;
#X obj 63 277 hsl 128 19 1 512 0 0 \$0-size_gui \$0-size_gui_set RMS(samps)
5 10 0 10 #dfdfdf #000000 #000000 0 1;
#X floatatom 204 277 5 1 512 0 - \$0-size_gui_set \$0-size_gui 0;
#X obj 63 97 hsl 128 19 -100 0 0 0 \$0-attenuation_gui \$0-attenuation_gui_set
empty 5 10 0 10 #000000 #ffffff #000000 0 1;
#X floatatom 204 97 5 -100 0 0 - \$0-attenuation_gui_set \$0-attenuation_gui
0;
#X obj 63 320 hsl 128 19 -12 0 0 0 \$0-limiter_gui \$0-limiter_gui_set
LIMITER(dB) 5 10 0 10 #dfdfdf #000000 #000000 0 1;
#X floatatom 204 320 5 -100 0 0 - \$0-limiter_gui_set \$0-limiter_gui
0;
#X obj 1057 50 inlet CONTROL;
#N canvas 725 189 728 368 CONTROL 0;
#X obj 88 54 inlet;
#X msg 545 162 reset;
#X obj 545 85 route reset;
#X obj 545 141 r \$0-reset_gui;
#X obj 88 157 param \$0-thresh \$0-memo 1 -12;
#X obj 88 178 param \$0-ratio \$0-memo 2 1;
#X obj 88 199 param \$0-attack \$0-memo 3 10;
#X obj 88 220 param \$0-release \$0-memo 4 10;
#X obj 88 241 param \$0-gain \$0-memo 5 0;
#X obj 88 262 param \$0-size \$0-memo 6 512;
#X obj 88 283 param \$0-limiter \$0-memo 7 0;
#X obj 429 183 memo \$0-memo 8 \$1;
#X obj 88 85 route active thresh ratio attack release gain size limiter
;
#X obj 88 136 param \$0-active \$0-memo 0 0;
#X connect 0 0 12 0;
#X connect 1 0 11 1;
#X connect 2 0 1 0;
#X connect 3 0 1 0;
#X connect 12 0 13 0;
#X connect 12 1 4 0;
#X connect 12 2 5 0;
#X connect 12 3 6 0;
#X connect 12 4 7 0;
#X connect 12 5 8 0;
#X connect 12 6 9 0;
#X connect 12 7 10 0;
#X connect 12 8 2 0;
#X restore 1057 81 pd CONTROL;
#X obj 50 307 cnv 2 200 2 empty empty empty 20 12 0 14 #000000 #404040
0;
#X obj 235 54 bng 11 250 50 0 \$0-reset_gui \$0-reset_gui_set empty
17 7 0 10 #ffffff #000000 #000000;
#X obj 50 71 cnv 2 200 2 empty empty empty 20 12 0 14 #000000 #404040
0;
#N canvas 532 102 809 564 SIGNAL_PROCESSING 0;
#X obj 77 57 inlet~ SIGNAL;
#X obj 277 413 switch~;
#X obj 277 397 tgl 15 0 empty empty empty 17 7 0 10 #fcfcfc #000000
#000000 0 1;
#X obj 95 377 vline~;
#X obj 77 398 *~;
#X obj 95 314 sel 0 1;
#X msg 277 356 1;
#X obj 229 335 t b b;
#X msg 229 356 1 10;
#X obj 95 335 t b b;
#X msg 95 356 0 10;
#X obj 152 356 del 10;
#X msg 152 377 0;
#X obj 95 293 r \$0-active;
#X obj 77 469 outlet~;
#X text 184 293 DSP DO PROCESSAMENTO;
#X obj 77 148 else/compress~;
#X obj 217 106 r \$0-thresh;
#X msg 217 127 thresh \$1;
#X obj 309 106 r \$0-ratio;
#X msg 309 127 ratio \$1;
#X obj 394 106 r \$0-attack;
#X msg 394 127 attack \$1;
#X obj 585 106 r \$0-gain;
#X msg 585 127 gain \$1;
#X obj 663 85 r \$0-size;
#X msg 663 127 size \$1;
#X obj 663 106 int;
#X obj 172 169 s \$0-attenuation_gui_set;
#X obj 486 106 r \$0-release;
#X msg 486 127 release \$1;
#X obj 77 252 else/compress~ 0 100 0 0 0 1;
#X obj 217 210 r \$0-limiter;
#X msg 217 231 thresh \$1;
#X connect 0 0 16 0;
#X connect 2 0 1 0;
#X connect 3 0 4 1;
#X connect 4 0 14 0;
#X connect 5 0 9 0;
#X connect 5 1 7 0;
#X connect 6 0 2 0;
#X connect 7 0 8 0;
#X connect 7 1 6 0;
#X connect 8 0 3 0;
#X connect 9 0 10 0;
#X connect 9 1 11 0;
#X connect 10 0 3 0;
#X connect 11 0 12 0;
#X connect 12 0 2 0;
#X connect 13 0 5 0;
#X connect 16 0 31 0;
#X connect 16 1 28 0;
#X connect 17 0 18 0;
#X connect 18 0 16 0;
#X connect 19 0 20 0;
#X connect 20 0 16 0;
#X connect 21 0 22 0;
#X connect 22 0 16 0;
#X connect 23 0 24 0;
#X connect 24 0 16 0;
#X connect 25 0 27 0;
#X connect 26 0 16 0;
#X connect 27 0 26 0;
#X connect 29 0 30 0;
#X connect 30 0 16 0;
#X connect 31 0 4 0;
#X connect 32 0 33 0;
#X connect 33 0 31 0;
#X restore 411 111 pd SIGNAL_PROCESSING;
#N canvas 1139 317 441 375 BYPASS 0;
#X obj 77 57 inlet~ SIGNAL;
#X obj 277 241 switch~;
#X obj 277 225 tgl 15 0 empty empty empty 17 7 0 10 #fcfcfc #000000
#000000 0 1;
#X obj 95 205 vline~;
#X obj 77 226 *~;
#X msg 277 184 1;
#X obj 229 163 t b b;
#X msg 229 184 1 10;
#X obj 95 163 t b b;
#X msg 95 184 0 10;
#X obj 152 184 del 10;
#X msg 152 205 0;
#X obj 95 121 r \$0-active;
#X obj 77 297 outlet~;
#X text 184 121 DSP DO BYPASS;
#X obj 95 142 sel 1 0;
#X connect 0 0 4 0;
#X connect 2 0 1 0;
#X connect 3 0 4 1;
#X connect 4 0 13 0;
#X connect 5 0 2 0;
#X connect 6 0 7 0;
#X connect 6 1 5 0;
#X connect 7 0 3 0;
#X connect 8 0 9 0;
#X connect 8 1 10 0;
#X connect 9 0 3 0;
#X connect 10 0 11 0;
#X connect 11 0 2 0;
#X connect 12 0 15 0;
#X connect 15 0 8 0;
#X connect 15 1 6 0;
#X restore 321 111 pd BYPASS;
#X obj 50 84 cnv 2 200 2 empty empty empty 20 12 0 14 #000000 #404040
0;
#X obj 55 74 hradio 9 1 0 21 \$0-activeBang_gui \$0-activeBang_gui_set
empty 0 -8 0 10 #fcfcfc #000000 #000000 0;
#X obj 51 74 cnv 9 198 9 empty \$0-activeStatus empty 20 12 0 14 #a0a0a0
#a0a0a0 0;
#N canvas 609 261 406 462 ACTIVE_BUTTON 0;
#X obj 102 286 sel 0 1;
#X msg 102 307 color 1 1 1;
#X msg 202 307 color 16 16 16;
#X text 100 73 COR DO BOTÃO ACTIVE;
#X obj 102 328 s \$0-activeStatus;
#X obj 102 98 r \$0-activeBang_gui;
#X obj 120 150 r \$0-active;
#X obj 102 192 f;
#X obj 102 119 bang;
#X obj 120 171 t f f;
#X obj 102 213 == 0;
#X text 142 213 INVERSOR;
#X obj 102 234 t f f;
#X obj 134 255 s \$0-active-;
#X connect 0 0 1 0;
#X connect 0 1 2 0;
#X connect 1 0 4 0;
#X connect 2 0 4 0;
#X connect 5 0 8 0;
#X connect 6 0 9 0;
#X connect 7 0 10 0;
#X connect 8 0 7 0;
#X connect 9 0 7 1;
#X connect 9 1 0 0;
#X connect 10 0 12 0;
#X connect 12 0 0 0;
#X connect 12 1 13 0;
#X restore 1057 122 pd ACTIVE_BUTTON;
#X obj 601 50 inlet~ SIGNAL;
#X obj 601 172 outlet~ SIGNAL;
#N canvas 532 102 809 564 SIGNAL_PROCESSING 0;
#X obj 77 57 inlet~ SIGNAL;
#X obj 277 413 switch~;
#X obj 277 397 tgl 15 0 empty empty empty 17 7 0 10 #fcfcfc #000000
#000000 0 1;
#X obj 95 377 vline~;
#X obj 77 398 *~;
#X obj 95 314 sel 0 1;
#X msg 277 356 1;
#X obj 229 335 t b b;
#X msg 229 356 1 10;
#X obj 95 335 t b b;
#X msg 95 356 0 10;
#X obj 152 356 del 10;
#X msg 152 377 0;
#X obj 95 293 r \$0-active;
#X obj 77 469 outlet~;
#X text 184 293 DSP DO PROCESSAMENTO;
#X obj 77 148 else/compress~;
#X obj 217 106 r \$0-thresh;
#X msg 217 127 thresh \$1;
#X obj 309 106 r \$0-ratio;
#X msg 309 127 ratio \$1;
#X obj 394 106 r \$0-attack;
#X msg 394 127 attack \$1;
#X obj 585 106 r \$0-gain;
#X msg 585 127 gain \$1;
#X obj 663 85 r \$0-size;
#X msg 663 127 size \$1;
#X obj 663 106 int;
#X obj 172 169 s \$0-attenuation_gui_set;
#X obj 486 106 r \$0-release;
#X msg 486 127 release \$1;
#X obj 77 252 else/compress~ 0 100 0 0 0 1;
#X obj 217 210 r \$0-limiter;
#X msg 217 231 thresh \$1;
#X connect 0 0 16 0;
#X connect 2 0 1 0;
#X connect 3 0 4 1;
#X connect 4 0 14 0;
#X connect 5 0 9 0;
#X connect 5 1 7 0;
#X connect 6 0 2 0;
#X connect 7 0 8 0;
#X connect 7 1 6 0;
#X connect 8 0 3 0;
#X connect 9 0 10 0;
#X connect 9 1 11 0;
#X connect 10 0 3 0;
#X connect 11 0 12 0;
#X connect 12 0 2 0;
#X connect 13 0 5 0;
#X connect 16 0 31 0;
#X connect 16 1 28 0;
#X connect 17 0 18 0;
#X connect 18 0 16 0;
#X connect 19 0 20 0;
#X connect 20 0 16 0;
#X connect 21 0 22 0;
#X connect 22 0 16 0;
#X connect 23 0 24 0;
#X connect 24 0 16 0;
#X connect 25 0 27 0;
#X connect 26 0 16 0;
#X connect 27 0 26 0;
#X connect 29 0 30 0;
#X connect 30 0 16 0;
#X connect 31 0 4 0;
#X connect 32 0 33 0;
#X connect 33 0 31 0;
#X restore 691 111 pd SIGNAL_PROCESSING;
#N canvas 1139 317 441 375 BYPASS 0;
#X obj 77 57 inlet~ SIGNAL;
#X obj 277 241 switch~;
#X obj 277 225 tgl 15 0 empty empty empty 17 7 0 10 #fcfcfc #000000
#000000 0 1;
#X obj 95 205 vline~;
#X obj 77 226 *~;
#X msg 277 184 1;
#X obj 229 163 t b b;
#X msg 229 184 1 10;
#X obj 95 163 t b b;
#X msg 95 184 0 10;
#X obj 152 184 del 10;
#X msg 152 205 0;
#X obj 95 121 r \$0-active;
#X obj 77 297 outlet~;
#X text 184 121 DSP DO BYPASS;
#X obj 95 142 sel 1 0;
#X connect 0 0 4 0;
#X connect 2 0 1 0;
#X connect 3 0 4 1;
#X connect 4 0 13 0;
#X connect 5 0 2 0;
#X connect 6 0 7 0;
#X connect 6 1 5 0;
#X connect 7 0 3 0;
#X connect 8 0 9 0;
#X connect 8 1 10 0;
#X connect 9 0 3 0;
#X connect 10 0 11 0;
#X connect 11 0 2 0;
#X connect 12 0 15 0;
#X connect 15 0 8 0;
#X connect 15 1 6 0;
#X restore 601 111 pd BYPASS;
#X connect 0 0 25 0;
#X connect 0 0 24 0;
#X connect 19 0 20 0;
#X connect 24 0 1 0;
#X connect 25 0 1 0;
#X connect 30 0 33 0;
#X connect 30 0 32 0;
#X connect 32 0 31 0;
#X connect 33 0 31 0;
#X coords 0 -1 1 1 200 300 1 50 50;
