#N canvas 288 97 893 296 12;
#X obj 301 50 inlet~ SIGNAL;
#X obj 301 173 outlet~ SIGNAL;
#X obj 707 50 inlet CONTROL;
#N canvas 342 141 658 287 CONTROL 0;
#X obj 88 54 inlet;
#X msg 485 126 reset;
#X obj 485 85 route reset;
#X obj 88 126 param \$0-active \$0-memo 0 1;
#X obj 88 168 param \$0-delFB \$0-memo 2 0;
#X obj 369 147 memo \$0-memo 3 \$1;
#X obj 88 85 route active delTime delFB;
#X obj 88 147 param \$0-delTime \$0-memo 1 1;
#X connect 0 0 6 0;
#X connect 1 0 5 1;
#X connect 2 0 1 0;
#X connect 6 0 3 0;
#X connect 6 1 7 0;
#X connect 6 2 4 0;
#X connect 6 3 2 0;
#X restore 707 81 pd CONTROL;
#N canvas 652 459 711 332 DELAY 1;
#X obj 87 50 inlet~ SIGNAL;
#X obj 87 260 outlet~ SIGNAL;
#N canvas 1191 111 467 262 delwrite 0;
#X obj 76 40 inlet~ SIGNAL;
#X obj 76 190 outlet~ DUMMY;
#X obj 76 141 delwrite~ \$0-del 1000;
#X msg 263 120 clear;
#X obj 263 99 r \$0-reset_gui;
#X obj 76 106 +~;
#X obj 94 85 catch~ \$0-FB;
#X connect 0 0 5 0;
#X connect 3 0 2 0;
#X connect 4 0 3 0;
#X connect 5 0 2 0;
#X connect 6 0 5 1;
#X restore 87 101 pd delwrite;
#N canvas 898 253 491 336 delread 0;
#X obj 76 205 vd~ \$0-del;
#X obj 76 40 inlet~ DUMMY;
#X obj 76 263 outlet~ SIGNAL;
#X obj 195 40 r \$0-delTime;
#X obj 195 144 pack 0 20;
#X obj 195 165 vline~;
#X obj 315 40 inlet~ MOD;
#X obj 195 186 +~;
#X obj 195 61 t f f;
#X obj 227 82 > 0;
#X obj 227 103 switch~;
#X connect 0 0 2 0;
#X connect 3 0 8 0;
#X connect 4 0 5 0;
#X connect 5 0 7 0;
#X connect 6 0 7 1;
#X connect 7 0 0 0;
#X connect 8 0 4 0;
#X connect 8 1 9 0;
#X connect 9 0 10 0;
#X restore 87 172 pd delread;
#X obj 553 50 r \$0-active;
#X obj 553 71 switch~;
#X obj 217 50 inlet~ MOD_TIME;
#X obj 360 50 inlet~ MOD_FB;
#X obj 342 101 r \$0-delFB;
#X obj 342 122 pack 0 20;
#X obj 342 143 vline~;
#X obj 342 164 +~;
#X obj 324 206 *~;
#X obj 342 185 clip~ 0 1;
#X obj 324 227 throw~ \$0-FB;
#X connect 0 0 2 0;
#X connect 2 0 3 0;
#X connect 3 0 1 0;
#X connect 3 0 12 0;
#X connect 4 0 5 0;
#X connect 6 0 3 1;
#X connect 7 0 11 1;
#X connect 8 0 9 0;
#X connect 9 0 10 0;
#X connect 10 0 11 0;
#X connect 11 0 13 0;
#X connect 12 0 14 0;
#X connect 13 0 12 1;
#X restore 319 111 pd DELAY;
#X obj 301 132 +~;
#X obj 63 84 hsl 128 19 0 100 0 0 \$0-delTime_gui \$0-delTime_gui_set
DEL_TIME 5 10 0 10 #dfdfdf #000000 #000000 0 1;
#X obj 63 114 hsl 128 19 0 1 0 0 \$0-delFB_gui \$0-delFB_gui_set DEL_FB
5 10 0 10 #dfdfdf #000000 #000000 0 1;
#X floatatom 204 84 5 0 99999 0 - \$0-delTime_gui_set \$0-delTime_gui
0;
#X floatatom 204 114 5 0 99999 0 - \$0-delFB_gui_set \$0-delFB_gui
0;
#X obj 427 50 inlet~ MOD_TIME;
#X obj 570 50 inlet~ MOD_FB;
#X connect 0 0 4 0;
#X connect 0 0 5 0;
#X connect 2 0 3 0;
#X connect 4 0 5 1;
#X connect 5 0 1 0;
#X connect 10 0 4 1;
#X connect 11 0 4 2;
