#N canvas 472 91 930 486 12;
#X declare -path else;
#X obj 321 50 inlet~ SIGNAL;
#X obj 321 152 outlet~ SIGNAL;
#X obj 524 50 declare -path else;
#X obj 717 50 inlet CONTROL;
#N canvas 762 129 936 473 CONTROL 0;
#X obj 88 54 inlet;
#X msg 732 162 reset;
#X obj 732 85 route reset;
#X obj 732 141 r \$0-reset_gui;
#X obj 88 157 param \$0-fxCrush \$0-memo 1 0;
#X obj 88 178 param \$0-fxDecimate \$0-memo 2 0;
#X obj 88 209 param \$0-fxDrive \$0-memo 3 1;
#X obj 88 240 param \$0-fxDelayTime \$0-memo 4 0;
#X obj 88 261 param \$0-fxDelayFB \$0-memo 5 0;
#X obj 88 292 param \$0-fxRevPre \$0-memo 6 0;
#X obj 88 313 param \$0-fxRevCut \$0-memo 7 0.5;
#X obj 88 334 param \$0-fxRevDamp \$0-memo 8 0.5;
#X obj 88 355 param \$0-fxRevSize \$0-memo 9 0.5;
#X obj 88 376 param \$0-fxRevWet \$0-memo 10 0;
#X obj 609 183 memo \$0-memo 11 \$1;
#X obj 88 85 route active crush decimate drive delTime delFB revPre revCut revDamp revSize revWet, f 84;
#X obj 88 126 param \$0-active \$0-memo 0 0;
#X connect 0 0 15 0;
#X connect 1 0 14 1;
#X connect 2 0 1 0;
#X connect 3 0 1 0;
#X connect 15 0 16 0;
#X connect 15 1 4 0;
#X connect 15 2 5 0;
#X connect 15 3 6 0;
#X connect 15 4 7 0;
#X connect 15 5 8 0;
#X connect 15 6 9 0;
#X connect 15 7 10 0;
#X connect 15 8 11 0;
#X connect 15 9 12 0;
#X connect 15 10 13 0;
#X connect 15 11 2 0;
#X restore 717 81 pd CONTROL;
#X obj 50 230 cnv 2 200 2 empty empty empty 20 12 0 14 #000000 #404040 0;
#X obj 63 170 hsl 128 19 0 1 0 0 \$0-fxCrush_gui \$0-fxCrush_gui_set BITCRUSH 5 10 0 10 #dfdfdf #000000 #000000 0 1;
#X obj 63 200 hsl 128 19 0 1 0 0 \$0-fxDecimate_gui \$0-fxDecimate_gui_set DECIMATE 5 10 0 10 #dfdfdf #000000 #000000 0 1;
#X obj 63 243 hsl 128 19 1 5 0 0 \$0-fxDrive_gui \$0-fxDrive_gui_set DRIVE 5 10 0 10 #dfdfdf #000000 #000000 0 1;
#X obj 63 97 hsl 128 19 0 100 0 0 \$0-fxDelayTime_gui \$0-fxDelayTime_gui_set DEL_TIME 5 10 0 10 #dfdfdf #000000 #000000 0 1;
#X obj 63 127 hsl 128 19 0 1 0 0 \$0-fxDelayFB_gui \$0-fxDelayFB_gui_set DEL_FB 5 10 0 10 #dfdfdf #000000 #000000 0 1;
#X floatatom 204 170 5 0 1 0 - \$0-fxCrush_gui_set \$0-fxCrush_gui 0;
#X floatatom 204 200 5 0 1 0 - \$0-fxDecimate_gui_set \$0-fxDecimate_gui 0;
#X floatatom 204 243 5 1 5 0 - \$0-fxDrive_gui_set \$0-fxDrive_gui 0;
#X floatatom 204 97 5 0 1000 0 - \$0-fxDelayTime_gui_set \$0-fxDelayTime_gui 0;
#X floatatom 204 127 5 0 1 0 - \$0-fxDelayFB_gui_set \$0-fxDelayFB_gui 0;
#X obj 63 286 hsl 128 19 0 1000 0 0 \$0-fxRevPre_gui \$0-fxRevPre_gui_set PRE_DEL 5 10 0 10 #dfdfdf #000000 #000000 0 1;
#X floatatom 204 286 5 0 1000 0 - \$0-fxRevPre_gui_set \$0-fxRevPre_gui 0;
#X obj 63 316 hsl 128 19 0 1 0 0 \$0-fxRevCut_gui \$0-fxRevCut_gui_set CUTOFF 5 10 0 10 #dfdfdf #000000 #000000 0 1;
#X floatatom 204 316 5 0 1 0 - \$0-fxRevCut_gui_set \$0-fxRevCut_gui 0;
#X obj 63 346 hsl 128 19 0 1 0 0 \$0-fxRevDamp_gui \$0-fxRevDamp_gui_set DAMPING 5 10 0 10 #dfdfdf #000000 #000000 0 1;
#X floatatom 204 346 5 0 1 0 - \$0-fxRevDamp_gui_set \$0-fxRevDamp_gui 0;
#X obj 63 376 hsl 128 19 0 1 0 0 \$0-fxRevSize_gui \$0-fxRevSize_gui_set SIZE 5 10 0 10 #dfdfdf #000000 #000000 0 1;
#X floatatom 204 376 5 0 1 0 - \$0-fxRevSize_gui_set \$0-fxRevSize_gui 0;
#X obj 63 406 hsl 128 19 0 1 0 0 \$0-fxRevWet_gui \$0-fxRevWet_gui_set WET 5 10 0 10 #dfdfdf #000000 #000000 0 1;
#X floatatom 204 406 5 0 1 0 - \$0-fxRevWet_gui_set \$0-fxRevWet_gui 0;
#X obj 50 157 cnv 2 200 2 empty empty empty 20 12 0 14 #000000 #ffffff 0;
#X obj 50 71 cnv 2 200 2 empty empty empty 20 12 0 14 #000000 #404040 0;
#X obj 50 273 cnv 2 200 2 empty empty empty 20 12 0 14 #000000 #404040 0;
#X obj 235 54 bng 11 250 50 0 \$0-reset_gui \$0-reset_gui_set empty 17 7 0 10 #ffffff #000000 #000000;
#N canvas 557 13 723 762 SIGNAL_PROCESSING 0;
#X obj 77 57 inlet~ SIGNAL;
#X obj 277 610 switch~;
#X obj 277 594 tgl 15 0 empty empty empty 17 7 0 10 #fcfcfc #000000 #000000 0 1;
#X obj 95 574 vline~;
#X obj 77 595 *~;
#X obj 95 511 sel 0 1;
#X msg 277 553 1;
#X obj 229 532 t b b;
#X msg 229 553 1 10;
#X obj 95 532 t b b;
#X msg 95 553 0 10;
#X obj 152 553 del 10;
#X msg 152 574 0;
#X obj 95 490 r \$0-active;
#X obj 77 666 outlet~;
#X text 184 490 DSP DO PROCESSAMENTO;
#X obj 77 231 else/crusher~;
#X obj 77 335 else/drive~;
#X obj 151 314 else/float2sig~ 50 1;
#X obj 121 189 r \$0-fxCrush;
#X obj 280 189 r \$0-fxDecimate;
#X obj 151 272 r \$0-fxDrive;
#X obj 130 106 r \$0-fxDelayTime;
#X obj 257 106 r \$0-fxDelayFB;
#X obj 280 210 pow 2;
#X obj 151 293 pow 2;
#X obj 77 428 else/plate.rev~;
#X msg 127 407 pre \$1;
#X msg 233 407 cutoff \$1;
#X msg 339 407 damp \$1;
#X msg 452 407 size \$1;
#X msg 565 407 wet \$1;
#X obj 127 386 r \$0-fxRevPre;
#X obj 233 386 r \$0-fxRevCut;
#X obj 339 386 r \$0-fxRevDamp;
#X obj 452 386 r \$0-fxRevSize;
#X obj 565 386 r \$0-fxRevWet;
#X obj 121 210 pow 4;
#X msg 130 127 delTime \$1;
#X msg 257 127 delFB \$1;
#X obj 77 148 delfb \$1;
#X connect 0 0 40 0;
#X connect 2 0 1 0;
#X connect 3 0 4 1;
#X connect 4 0 14 0;
#X connect 5 0 9 0;
#X connect 5 1 7 0;
#X connect 6 0 2 0;
#X connect 7 0 8 0;
#X connect 7 1 6 0;
#X connect 8 0 3 0;
#X connect 9 0 10 0;
#X connect 9 1 11 0;
#X connect 10 0 3 0;
#X connect 11 0 12 0;
#X connect 12 0 2 0;
#X connect 13 0 5 0;
#X connect 16 0 17 0;
#X connect 17 0 26 0;
#X connect 18 0 17 1;
#X connect 19 0 37 0;
#X connect 20 0 24 0;
#X connect 21 0 25 0;
#X connect 22 0 38 0;
#X connect 23 0 39 0;
#X connect 24 0 16 2;
#X connect 25 0 18 0;
#X connect 26 0 4 0;
#X connect 27 0 26 0;
#X connect 28 0 26 0;
#X connect 29 0 26 0;
#X connect 30 0 26 0;
#X connect 31 0 26 0;
#X connect 32 0 27 0;
#X connect 33 0 28 0;
#X connect 34 0 29 0;
#X connect 35 0 30 0;
#X connect 36 0 31 0;
#X connect 37 0 16 1;
#X connect 38 0 40 3;
#X connect 39 0 40 3;
#X connect 40 0 16 0;
#X restore 411 101 pd SIGNAL_PROCESSING;
#N canvas 1660 412 441 375 BYPASS 0;
#X obj 77 57 inlet~ SIGNAL;
#X obj 277 241 switch~;
#X obj 277 225 tgl 15 0 empty empty empty 17 7 0 10 #fcfcfc #000000 #000000 0 1;
#X obj 95 205 vline~;
#X obj 77 226 *~;
#X msg 277 184 1;
#X obj 229 163 t b b;
#X msg 229 184 1 10;
#X obj 95 163 t b b;
#X msg 95 184 0 10;
#X obj 152 184 del 10;
#X msg 152 205 0;
#X obj 95 121 r \$0-active;
#X obj 77 297 outlet~;
#X text 184 121 DSP DO BYPASS;
#X obj 95 142 sel 1 0;
#X connect 0 0 4 0;
#X connect 2 0 1 0;
#X connect 3 0 4 1;
#X connect 4 0 13 0;
#X connect 5 0 2 0;
#X connect 6 0 7 0;
#X connect 6 1 5 0;
#X connect 7 0 3 0;
#X connect 8 0 9 0;
#X connect 8 1 10 0;
#X connect 9 0 3 0;
#X connect 10 0 11 0;
#X connect 11 0 2 0;
#X connect 12 0 15 0;
#X connect 15 0 8 0;
#X connect 15 1 6 0;
#X restore 321 101 pd BYPASS;
#X obj 50 84 cnv 2 200 2 empty empty empty 20 12 0 14 #000000 #404040 0;
#X obj 55 74 hradio 9 1 0 21 \$0-activeBang_gui \$0-activeBang_gui_set empty 0 -8 0 10 #fcfcfc #000000 #000000 0;
#X obj 51 74 cnv 9 198 9 empty \$0-activeStatus empty 20 12 0 14 #a0a0a0 #a0a0a0 0;
#N canvas 609 261 406 462 ACTIVE_BUTTON 0;
#X obj 102 286 sel 0 1;
#X msg 102 307 color 1 1 1;
#X msg 202 307 color 16 16 16;
#X text 100 73 COR DO BOTÃO ACTIVE;
#X obj 102 328 s \$0-activeStatus;
#X obj 102 98 r \$0-activeBang_gui;
#X obj 120 150 r \$0-active;
#X obj 102 192 f;
#X obj 102 119 bang;
#X obj 120 171 t f f;
#X obj 102 213 == 0;
#X text 142 213 INVERSOR;
#X obj 102 234 t f f;
#X obj 134 255 s \$0-active-;
#X connect 0 0 1 0;
#X connect 0 1 2 0;
#X connect 1 0 4 0;
#X connect 2 0 4 0;
#X connect 5 0 8 0;
#X connect 6 0 9 0;
#X connect 7 0 10 0;
#X connect 8 0 7 0;
#X connect 9 0 7 1;
#X connect 9 1 0 0;
#X connect 10 0 12 0;
#X connect 12 0 0 0;
#X connect 12 1 13 0;
#X restore 717 122 pd ACTIVE_BUTTON;
#X connect 0 0 31 0;
#X connect 0 0 30 0;
#X connect 3 0 4 0;
#X connect 30 0 1 0;
#X connect 31 0 1 0;
#X coords 0 -1 1 1 200 386 1 50 50;
