#N canvas 1228 39 1322 942 12;
#X declare -path else;
#X obj 50 80 else/function 200 100 empty 1003-env1 0 1 220 220 220
50 50 50 0 0 0 0 0 5 1 25 0.4 47 0.47 23 0;
#X msg 646 186 duration \$1 \, bang;
#X obj 301 29 inlet TRIGGER;
#X obj 301 620 pow~;
#X obj 326 578 pack 0 20;
#X obj 319 693 pack 0 20;
#X obj 301 735 *~;
#X obj 301 880 outlet~ ENVELOPE;
#X obj 451 880 outlet~ RAW_ENVELOPE;
#X floatatom 79 186 5 0 99 0 SHP \$0-shape_gui_set \$0-shape_gui 0
;
#X floatatom 79 211 5 0 0 0 AMP \$0-amp_gui_set \$0-amp_gui 0;
#X obj 301 50 r \$1-trig;
#X obj 326 557 r \$0-shape;
#X obj 319 651 r \$0-amp;
#X obj 942 880 outlet STATUS;
#X obj 200 186 hsl 42 19 0.01 1 0 0 \$0-relDur_gui \$0-relDur_gui_set
empty -2 -8 0 10 #fcfcfc #000000 #000000 0 1;
#X obj 646 165 *;
#X obj 664 124 r \$0-relDur;
#X obj 664 145 t b f;
#X obj 50 29 r \$0-env_gui_set;
#X obj 50 237 s \$0-env_gui;
#X obj 382 261 r \$0-env;
#X obj 646 207 s \$0-env_gui_set;
#X obj 53 69 hsl 195 10 0 1 0 0 \$0-scroll_gui \$0-scroll_gui_set empty
-2 -8 0 10 #000000 #dfdfdf #000000 0 1;
#X obj 646 588 r \$0-scroll_gui;
#X obj 319 672 t f f;
#X obj 664 692 t b f;
#X obj 646 609 s \$0-env_gui_set;
#X obj 382 282 route list;
#X obj 646 650 r \$0-env;
#X obj 646 671 route float;
#X obj 646 713 * 1;
#X obj 646 880 outlet SCROLL;
#X obj 646 734 change;
#X obj 302 505 -~ 0;
#X obj 302 526 abs~;
#X obj 327 484 r \$0-inv;
#X obj 146 211 tgl 19 0 \$0-inv_gui \$0-inv_gui_set empty 17 7 0 10
#fcfcfc #000000 #000000 0 1;
#X text 119 210 INV;
#X obj 200 211 hsl 42 19 0 1 0 0 \$0-amt_gui \$0-amt_gui_set empty
-2 -8 0 10 #fcfcfc #000000 #000000 0 1;
#X text 169 210 AMT;
#X obj 319 787 pack 0 20;
#X obj 301 829 *~;
#X obj 319 766 r \$0-amt;
#X obj 646 29 declare -path else;
#X floatatom 146 186 5 1 60000 0 DUR \$0-dur_gui_set \$0-dur_gui 0
;
#X text 185 185 -;
#X obj 821 29 inlet CONTROL;
#N canvas 0 0 779 335 CONTROL 0;
#X obj 73 47 inlet;
#X obj 73 150 param \$0-shape \$0-memo 1 1;
#X obj 73 171 param \$0-amp \$0-memo 2 1;
#X msg 499 157 reset;
#X obj 73 129 param \$0-env \$0-memo 0 0 5 1 25 0.4 70 0;
#X obj 73 192 param \$0-dur \$0-memo 3 100;
#X obj 383 178 memo \$0-memo 7 \$1;
#X obj 73 213 param \$0-relDur \$0-memo 4 1;
#X obj 73 234 param \$0-inv \$0-memo 5 0;
#X obj 73 255 param \$0-amt \$0-memo 6 1;
#X obj 73 78 route env shape amp dur relDur inv amt;
#X msg 431 157 dump;
#X obj 383 78 route memo dump reset;
#X obj 383 209 s \$0-memoOut;
#X obj 595 78 r \$1-dur;
#X text 592 53 DURAÇÃO GLOBAL;
#X obj 595 99 s \$0-dur-;
#X obj 499 136 r \$0-reset_gui;
#X connect 0 0 10 0;
#X connect 3 0 6 1;
#X connect 6 0 13 0;
#X connect 10 0 4 0;
#X connect 10 1 1 0;
#X connect 10 2 2 0;
#X connect 10 3 5 0;
#X connect 10 4 7 0;
#X connect 10 5 8 0;
#X connect 10 6 9 0;
#X connect 10 7 12 0;
#X connect 11 0 6 1;
#X connect 12 0 6 0;
#X connect 12 1 11 0;
#X connect 12 2 3 0;
#X connect 14 0 16 0;
#X connect 17 0 3 0;
#X restore 821 70 pd CONTROL;
#X obj 792 839 r \$0-memoOut;
#X obj 646 93 r \$0-dur;
#X obj 792 880 outlet MEMO_DUMP;
#X obj 235 54 bng 11 250 50 0 \$0-reset_gui \$0-reset_gui_set empty
17 7 0 10 #ffffff #000000 #000000;
#X obj 319 808 line~;
#X obj 326 599 line~;
#X obj 319 714 line~;
#X obj 428 345 switch~;
#X obj 301 209 t b b;
#X obj 333 230 s \$0-env_gui_set;
#X obj 301 303 else/envgen~;
#X obj 382 324 t f f f;
#X obj 301 71 t b;
#X obj 301 113 sel 0 1;
#X obj 301 444 *~;
#X msg 399 403 0 5;
#X obj 359 424 vline~;
#X msg 359 403 1;
#X obj 397 133 t b b;
#X obj 397 154 del 5;
#X obj 397 175 t b b;
#X obj 301 92 f 0;
#X obj 359 372 loadbang;
#X connect 0 0 20 0;
#X connect 1 0 22 0;
#X connect 2 0 61 0;
#X connect 3 0 6 0;
#X connect 4 0 54 0;
#X connect 5 0 55 0;
#X connect 6 0 42 0;
#X connect 11 0 61 0;
#X connect 12 0 4 0;
#X connect 13 0 25 0;
#X connect 16 0 1 0;
#X connect 17 0 18 0;
#X connect 18 0 16 0;
#X connect 18 1 16 1;
#X connect 19 0 0 0;
#X connect 21 0 28 0;
#X connect 24 0 27 0;
#X connect 25 0 5 0;
#X connect 25 1 26 0;
#X connect 26 0 31 0;
#X connect 26 1 31 1;
#X connect 28 0 59 1;
#X connect 29 0 30 0;
#X connect 30 0 31 0;
#X connect 31 0 33 0;
#X connect 33 0 32 0;
#X connect 34 0 35 0;
#X connect 35 0 3 0;
#X connect 36 0 34 1;
#X connect 41 0 53 0;
#X connect 42 0 7 0;
#X connect 43 0 41 0;
#X connect 47 0 48 0;
#X connect 49 0 51 0;
#X connect 50 0 16 0;
#X connect 53 0 42 1;
#X connect 54 0 3 1;
#X connect 55 0 6 1;
#X connect 57 0 59 0;
#X connect 57 1 58 0;
#X connect 59 0 63 0;
#X connect 59 1 60 0;
#X connect 60 0 14 0;
#X connect 60 1 70 1;
#X connect 60 2 56 0;
#X connect 61 0 70 0;
#X connect 62 0 57 0;
#X connect 62 1 67 0;
#X connect 63 0 34 0;
#X connect 63 0 8 0;
#X connect 64 0 65 0;
#X connect 65 0 63 1;
#X connect 66 0 65 0;
#X connect 67 0 68 0;
#X connect 67 1 64 0;
#X connect 68 0 69 0;
#X connect 69 0 57 0;
#X connect 69 1 66 0;
#X connect 70 0 62 0;
#X connect 71 0 66 0;
#X coords 0 -1 1 1 200 186 1 50 50;
