#N canvas 361 134 1276 589 12;
#X declare -path else;
#X obj 250 31 inlet~ SIGNAL;
#X obj 386 31 inlet~ FM;
#X obj 596 31 declare -path else;
#X obj 100 220 cnv 15 1060 340 empty empty empty 20 12 0 14 #000000
#404040 0;
#X obj 250 260 else/biplot;
#X obj 250 239 r \$0-plot;
#X obj 306 230 hsl 800 19 20 20000 1 0 \$0-freq_gui \$0-freq_gui_set
empty -2 -8 0 10 #dfdfdf #000000 #000000 0 1;
#X obj 126 329 vradio 19 1 0 9 \$0-filterType_gui \$0-filterType_gui_set
empty 0 -8 0 10 #fcfcfc #000000 #000000 0;
#X obj 156 329 cnv 15 20 19 empty empty LOWPASS 0 9 0 14 #000000 #ffffff
0;
#X obj 156 348 cnv 15 20 19 empty empty LOWSHELF 0 9 0 14 #000000 #ffffff
0;
#X obj 156 367 cnv 15 20 19 empty empty HIGHPASS 0 9 0 14 #000000 #ffffff
0;
#X obj 156 386 cnv 15 20 19 empty empty HIGHSHELF 0 9 0 14 #000000
#ffffff 0;
#X obj 156 405 cnv 15 20 19 empty empty BANDPASS 0 9 0 14 #000000 #ffffff
0;
#X obj 156 424 cnv 15 20 19 empty empty RESONANT 0 9 0 14 #000000 #ffffff
0;
#X obj 156 443 cnv 15 20 19 empty empty BANDSTOP 0 9 0 14 #000000 #ffffff
0;
#X obj 156 462 cnv 15 20 19 empty empty EQ 0 9 0 14 #000000 #ffffff
0;
#X obj 156 481 cnv 15 20 19 empty empty ALLPASS 0 9 0 14 #000000 #ffffff
0;
#X obj 125 230 nbx 5 19 20 20000 1 0 \$0-freq_gui \$0-freq_gui_set
empty 0 -8 0 10 #dfdfdf #000000 #000000 0 256;
#X obj 125 260 nbx 5 19 0.1 100 1 0 \$0-q_gui \$0-q_gui_set empty 0
-8 0 10 #dcdcdc #000000 #000000 0 256;
#X obj 125 290 nbx 5 19 -24 24 0 0 \$0-gain_gui \$0-gain_gui_set empty
0 -8 0 10 #dfdfdf #000000 #000000 0 256;
#X obj 192 260 cnv 15 20 19 empty empty Q/SLP 0 9 0 14 #000000 #ffffff
0;
#X obj 192 290 cnv 15 20 19 empty empty GAIN 0 9 0 14 #000000 #ffffff
0;
#X obj 192 230 cnv 15 20 19 empty empty FREQ 0 9 0 14 #000000 #ffffff
0;
#X obj 232 230 cnv 15 20 19 empty empty <------> 0 9 0 14 #000000 #ffffff
0;
#X obj 126 520 tgl 29 0 \$0-active_gui \$0-active_gui_set empty 17
7 0 10 #a0a0a0 #a0a0a0 #a0a0a0 0 1;
#X obj 165 526 cnv 15 20 19 empty empty ACTIVE 0 9 0 14 #000000 #ffffff
0;
#N canvas 1460 315 626 318 CONTROL 0;
#X obj 77 52 inlet CONTROL;
#X obj 77 165 param \$0-filterType \$0-memo 1 0;
#X obj 77 186 param \$0-freq \$0-memo 2 20000;
#X obj 77 207 param \$0-q \$0-memo 3 1;
#X obj 77 228 param \$0-gain \$0-memo 4 0;
#X obj 341 144 memo \$0-memo 5 \$1;
#X msg 457 123 reset;
#X obj 77 93 route active type freq q gain reset;
#X obj 457 102 r \$0-reset_gui;
#X obj 77 144 param \$0-active \$0-memo 0 0;
#X connect 0 0 7 0;
#X connect 6 0 5 1;
#X connect 7 0 9 0;
#X connect 7 1 1 0;
#X connect 7 2 2 0;
#X connect 7 3 3 0;
#X connect 7 4 4 0;
#X connect 7 5 6 0;
#X connect 8 0 6 0;
#X restore 947 62 pd CONTROL;
#X obj 1130 230 bng 19 250 50 0 \$0-reset_gui \$0-reset_gui_set empty
17 7 0 10 #ffffff #000000 #000000;
#X obj 947 31 inlet CONTROL;
#N canvas 461 348 919 443 SIGNAL_PROCESSING 0;
#N canvas 901 150 467 510 LOWPASS 0;
#X obj 86 159 else/lowpass~;
#X obj 86 60 inlet~;
#X obj 86 408 outlet~;
#X obj 286 382 switch~;
#X obj 286 366 tgl 15 0 empty empty empty 17 7 0 10 #fcfcfc #000000
#000000 0 1;
#X obj 104 221 r \$0-filterType;
#X obj 104 252 == 0;
#X obj 104 346 vline~;
#X obj 86 367 *~;
#X obj 104 283 sel 0 1;
#X msg 286 325 1;
#X obj 238 304 t b b;
#X msg 238 325 1 10;
#X obj 104 304 t b b;
#X msg 104 325 0 10;
#X obj 161 325 del 10;
#X msg 161 346 0;
#X obj 130 108 r~ \$0-freq~;
#X obj 222 108 r~ \$0-q~;
#X obj 293 108 r~ \$0-gain~;
#X obj 293 170 dbtorms~;
#X obj 293 149 +~ 100;
#X obj 86 190 *~;
#X connect 0 0 22 0;
#X connect 1 0 0 0;
#X connect 4 0 3 0;
#X connect 5 0 6 0;
#X connect 6 0 9 0;
#X connect 7 0 8 1;
#X connect 8 0 2 0;
#X connect 9 0 13 0;
#X connect 9 1 11 0;
#X connect 10 0 4 0;
#X connect 11 0 12 0;
#X connect 11 1 10 0;
#X connect 12 0 7 0;
#X connect 13 0 14 0;
#X connect 13 1 15 0;
#X connect 14 0 7 0;
#X connect 15 0 16 0;
#X connect 16 0 4 0;
#X connect 17 0 0 1;
#X connect 18 0 0 2;
#X connect 19 0 21 0;
#X connect 20 0 22 1;
#X connect 21 0 20 0;
#X connect 22 0 8 0;
#X restore 77 139 pd LOWPASS;
#N canvas 690 312 1273 479 INTERNALS 0;
#X obj 74 346 else/bicoeff2 500 10;
#X obj 74 377 s \$0-plot;
#X obj 299 290 list store lowpass lowshelf highpass highshelf bandpass
resonant bandstop eq allpass, f 46;
#X msg 299 269 get \$1;
#X obj 299 326 list trim;
#X obj 299 248 r \$0-filterType;
#X obj 74 305 r \$0-freq;
#X obj 152 305 r \$0-q;
#X obj 211 305 r \$0-gain;
#X obj 299 80 r \$0-freq;
#X obj 299 122 line~;
#X obj 299 153 +~;
#X obj 397 80 inlet~ FM;
#X obj 299 174 s~ \$0-freq~;
#X obj 499 122 line~;
#X obj 499 174 s~ \$0-q~;
#X obj 499 80 r \$0-q;
#X obj 299 101 pack 0 20;
#X obj 499 101 pack 0 20;
#X obj 599 122 line~;
#X obj 599 101 pack 0 20;
#X obj 599 80 r \$0-gain;
#X obj 599 174 s~ \$0-gain~;
#X text 380 44 CONVERTE CONTROLES EM SINAIS;
#X text 129 258 PLOTA FILTRO;
#X text 77 44 ENTRADA DE SINAL;
#X obj 84 80 inlet~ SIGNAL;
#X text 98 133 FORÇA ORDEM DE EXECUÇÃO DOS [s~], f 17;
#X obj 84 174 outlet~ SIGNAL;
#X obj 782 80 r \$0-active;
#X obj 782 111 sel 0 1;
#X msg 782 142 color 1 1 1;
#X obj 782 173 s \$0-active_gui_set;
#X msg 882 142 color 16 16 16;
#X text 780 44 COR DO BOTÃO ACTIVE;
#X connect 0 0 1 0;
#X connect 2 0 4 0;
#X connect 3 0 2 0;
#X connect 4 0 0 0;
#X connect 5 0 3 0;
#X connect 6 0 0 0;
#X connect 7 0 0 1;
#X connect 8 0 0 2;
#X connect 9 0 17 0;
#X connect 10 0 11 0;
#X connect 11 0 13 0;
#X connect 12 0 11 1;
#X connect 14 0 15 0;
#X connect 16 0 18 0;
#X connect 17 0 10 0;
#X connect 18 0 14 0;
#X connect 19 0 22 0;
#X connect 20 0 19 0;
#X connect 21 0 20 0;
#X connect 26 0 28 0;
#X connect 29 0 30 0;
#X connect 30 0 31 0;
#X connect 30 1 33 0;
#X connect 31 0 32 0;
#X connect 33 0 32 0;
#X restore 77 118 pd INTERNALS;
#N canvas 901 150 467 510 LOWSHELF 0;
#X obj 86 60 inlet~;
#X obj 86 408 outlet~;
#X obj 286 382 switch~;
#X obj 286 366 tgl 15 0 empty empty empty 17 7 0 10 #fcfcfc #000000
#000000 0 1;
#X obj 104 221 r \$0-filterType;
#X obj 104 346 vline~;
#X obj 86 367 *~;
#X obj 104 283 sel 0 1;
#X msg 286 325 1;
#X obj 238 304 t b b;
#X msg 238 325 1 10;
#X obj 104 304 t b b;
#X msg 104 325 0 10;
#X obj 161 325 del 10;
#X msg 161 346 0;
#X obj 118 108 r~ \$0-freq~;
#X obj 210 108 r~ \$0-q~;
#X obj 281 108 r~ \$0-gain~;
#X obj 104 252 == 1;
#X obj 86 159 else/lowshelf~;
#X connect 0 0 19 0;
#X connect 3 0 2 0;
#X connect 4 0 18 0;
#X connect 5 0 6 1;
#X connect 6 0 1 0;
#X connect 7 0 11 0;
#X connect 7 1 9 0;
#X connect 8 0 3 0;
#X connect 9 0 10 0;
#X connect 9 1 8 0;
#X connect 10 0 5 0;
#X connect 11 0 12 0;
#X connect 11 1 13 0;
#X connect 12 0 5 0;
#X connect 13 0 14 0;
#X connect 14 0 3 0;
#X connect 15 0 19 1;
#X connect 16 0 19 2;
#X connect 17 0 19 3;
#X connect 18 0 7 0;
#X connect 19 0 6 0;
#X restore 162 139 pd LOWSHELF;
#N canvas 901 150 467 510 HIGHPASS 0;
#X obj 86 60 inlet~;
#X obj 86 408 outlet~;
#X obj 286 382 switch~;
#X obj 286 366 tgl 15 0 empty empty empty 17 7 0 10 #fcfcfc #000000
#000000 0 1;
#X obj 104 221 r \$0-filterType;
#X obj 104 346 vline~;
#X obj 86 367 *~;
#X obj 104 283 sel 0 1;
#X msg 286 325 1;
#X obj 238 304 t b b;
#X msg 238 325 1 10;
#X obj 104 304 t b b;
#X msg 104 325 0 10;
#X obj 161 325 del 10;
#X msg 161 346 0;
#X obj 133 108 r~ \$0-freq~;
#X obj 225 108 r~ \$0-q~;
#X obj 296 108 r~ \$0-gain~;
#X obj 296 170 dbtorms~;
#X obj 296 149 +~ 100;
#X obj 86 190 *~;
#X obj 86 159 else/highpass~;
#X obj 104 252 == 2;
#X connect 0 0 21 0;
#X connect 3 0 2 0;
#X connect 4 0 22 0;
#X connect 5 0 6 1;
#X connect 6 0 1 0;
#X connect 7 0 11 0;
#X connect 7 1 9 0;
#X connect 8 0 3 0;
#X connect 9 0 10 0;
#X connect 9 1 8 0;
#X connect 10 0 5 0;
#X connect 11 0 12 0;
#X connect 11 1 13 0;
#X connect 12 0 5 0;
#X connect 13 0 14 0;
#X connect 14 0 3 0;
#X connect 15 0 21 1;
#X connect 16 0 21 2;
#X connect 17 0 19 0;
#X connect 18 0 20 1;
#X connect 19 0 18 0;
#X connect 20 0 6 0;
#X connect 21 0 20 0;
#X connect 22 0 7 0;
#X restore 254 139 pd HIGHPASS;
#N canvas 859 123 467 510 HIGHSHELF 0;
#X obj 86 60 inlet~;
#X obj 86 408 outlet~;
#X obj 286 382 switch~;
#X obj 286 366 tgl 15 0 empty empty empty 17 7 0 10 #fcfcfc #000000
#000000 0 1;
#X obj 104 221 r \$0-filterType;
#X obj 104 346 vline~;
#X obj 86 367 *~;
#X obj 104 283 sel 0 1;
#X msg 286 325 1;
#X obj 238 304 t b b;
#X msg 238 325 1 10;
#X obj 104 304 t b b;
#X msg 104 325 0 10;
#X obj 161 325 del 10;
#X msg 161 346 0;
#X obj 119 108 r~ \$0-freq~;
#X obj 211 108 r~ \$0-q~;
#X obj 282 108 r~ \$0-gain~;
#X obj 86 159 else/highshelf~;
#X obj 104 252 == 3;
#X connect 0 0 18 0;
#X connect 3 0 2 0;
#X connect 4 0 19 0;
#X connect 5 0 6 1;
#X connect 6 0 1 0;
#X connect 7 0 11 0;
#X connect 7 1 9 0;
#X connect 8 0 3 0;
#X connect 9 0 10 0;
#X connect 9 1 8 0;
#X connect 10 0 5 0;
#X connect 11 0 12 0;
#X connect 11 1 13 0;
#X connect 12 0 5 0;
#X connect 13 0 14 0;
#X connect 14 0 3 0;
#X connect 15 0 18 1;
#X connect 16 0 18 2;
#X connect 17 0 18 3;
#X connect 18 0 6 0;
#X connect 19 0 7 0;
#X restore 346 139 pd HIGHSHELF;
#N canvas 901 150 467 510 BANDPASS 0;
#X obj 86 60 inlet~;
#X obj 86 408 outlet~;
#X obj 286 382 switch~;
#X obj 286 366 tgl 15 0 empty empty empty 17 7 0 10 #fcfcfc #000000
#000000 0 1;
#X obj 104 221 r \$0-filterType;
#X obj 104 346 vline~;
#X obj 86 367 *~;
#X obj 104 283 sel 0 1;
#X msg 286 325 1;
#X obj 238 304 t b b;
#X msg 238 325 1 10;
#X obj 104 304 t b b;
#X msg 104 325 0 10;
#X obj 161 325 del 10;
#X msg 161 346 0;
#X obj 133 108 r~ \$0-freq~;
#X obj 225 108 r~ \$0-q~;
#X obj 296 108 r~ \$0-gain~;
#X obj 296 170 dbtorms~;
#X obj 296 149 +~ 100;
#X obj 86 190 *~;
#X obj 86 159 else/bandpass~;
#X obj 104 252 == 4;
#X connect 0 0 21 0;
#X connect 3 0 2 0;
#X connect 4 0 22 0;
#X connect 5 0 6 1;
#X connect 6 0 1 0;
#X connect 7 0 11 0;
#X connect 7 1 9 0;
#X connect 8 0 3 0;
#X connect 9 0 10 0;
#X connect 9 1 8 0;
#X connect 10 0 5 0;
#X connect 11 0 12 0;
#X connect 11 1 13 0;
#X connect 12 0 5 0;
#X connect 13 0 14 0;
#X connect 14 0 3 0;
#X connect 15 0 21 1;
#X connect 16 0 21 2;
#X connect 17 0 19 0;
#X connect 18 0 20 1;
#X connect 19 0 18 0;
#X connect 20 0 6 0;
#X connect 21 0 20 0;
#X connect 22 0 7 0;
#X restore 445 139 pd BANDPASS;
#N canvas 901 150 467 510 RESONANT 0;
#X obj 86 60 inlet~;
#X obj 86 408 outlet~;
#X obj 286 382 switch~;
#X obj 286 366 tgl 15 0 empty empty empty 17 7 0 10 #fcfcfc #000000
#000000 0 1;
#X obj 104 221 r \$0-filterType;
#X obj 104 346 vline~;
#X obj 86 367 *~;
#X obj 104 283 sel 0 1;
#X msg 286 325 1;
#X obj 238 304 t b b;
#X msg 238 325 1 10;
#X obj 104 304 t b b;
#X msg 104 325 0 10;
#X obj 161 325 del 10;
#X msg 161 346 0;
#X obj 133 108 r~ \$0-freq~;
#X obj 225 108 r~ \$0-q~;
#X obj 296 108 r~ \$0-gain~;
#X obj 296 170 dbtorms~;
#X obj 296 149 +~ 100;
#X obj 86 190 *~;
#X obj 86 159 else/resonant~;
#X obj 104 252 == 5;
#X connect 0 0 21 0;
#X connect 3 0 2 0;
#X connect 4 0 22 0;
#X connect 5 0 6 1;
#X connect 6 0 1 0;
#X connect 7 0 11 0;
#X connect 7 1 9 0;
#X connect 8 0 3 0;
#X connect 9 0 10 0;
#X connect 9 1 8 0;
#X connect 10 0 5 0;
#X connect 11 0 12 0;
#X connect 11 1 13 0;
#X connect 12 0 5 0;
#X connect 13 0 14 0;
#X connect 14 0 3 0;
#X connect 15 0 21 1;
#X connect 16 0 21 2;
#X connect 17 0 19 0;
#X connect 18 0 20 1;
#X connect 19 0 18 0;
#X connect 20 0 6 0;
#X connect 21 0 20 0;
#X connect 22 0 7 0;
#X restore 537 139 pd RESONANT;
#N canvas 901 150 467 510 BANDSTOP 0;
#X obj 86 60 inlet~;
#X obj 86 408 outlet~;
#X obj 286 382 switch~;
#X obj 286 366 tgl 15 0 empty empty empty 17 7 0 10 #fcfcfc #000000
#000000 0 1;
#X obj 104 221 r \$0-filterType;
#X obj 104 346 vline~;
#X obj 86 367 *~;
#X obj 104 283 sel 0 1;
#X msg 286 325 1;
#X obj 238 304 t b b;
#X msg 238 325 1 10;
#X obj 104 304 t b b;
#X msg 104 325 0 10;
#X obj 161 325 del 10;
#X msg 161 346 0;
#X obj 133 108 r~ \$0-freq~;
#X obj 225 108 r~ \$0-q~;
#X obj 296 108 r~ \$0-gain~;
#X obj 296 170 dbtorms~;
#X obj 296 149 +~ 100;
#X obj 86 190 *~;
#X obj 104 252 == 6;
#X obj 86 159 else/bandstop~;
#X connect 0 0 22 0;
#X connect 3 0 2 0;
#X connect 4 0 21 0;
#X connect 5 0 6 1;
#X connect 6 0 1 0;
#X connect 7 0 11 0;
#X connect 7 1 9 0;
#X connect 8 0 3 0;
#X connect 9 0 10 0;
#X connect 9 1 8 0;
#X connect 10 0 5 0;
#X connect 11 0 12 0;
#X connect 11 1 13 0;
#X connect 12 0 5 0;
#X connect 13 0 14 0;
#X connect 14 0 3 0;
#X connect 15 0 22 1;
#X connect 16 0 22 2;
#X connect 17 0 19 0;
#X connect 18 0 20 1;
#X connect 19 0 18 0;
#X connect 20 0 6 0;
#X connect 21 0 7 0;
#X connect 22 0 20 0;
#X restore 629 139 pd BANDSTOP;
#N canvas 888 335 467 510 EQ 0;
#X obj 86 60 inlet~;
#X obj 86 408 outlet~;
#X obj 286 382 switch~;
#X obj 286 366 tgl 15 0 empty empty empty 17 7 0 10 #fcfcfc #000000
#000000 0 1;
#X obj 104 221 r \$0-filterType;
#X obj 104 346 vline~;
#X obj 86 367 *~;
#X obj 104 283 sel 0 1;
#X msg 286 325 1;
#X obj 238 304 t b b;
#X msg 238 325 1 10;
#X obj 104 304 t b b;
#X msg 104 325 0 10;
#X obj 161 325 del 10;
#X msg 161 346 0;
#X obj 104 108 r~ \$0-freq~;
#X obj 196 108 r~ \$0-q~;
#X obj 267 108 r~ \$0-gain~;
#X obj 86 159 else/eq~;
#X obj 104 252 == 7;
#X connect 0 0 18 0;
#X connect 3 0 2 0;
#X connect 4 0 19 0;
#X connect 5 0 6 1;
#X connect 6 0 1 0;
#X connect 7 0 11 0;
#X connect 7 1 9 0;
#X connect 8 0 3 0;
#X connect 9 0 10 0;
#X connect 9 1 8 0;
#X connect 10 0 5 0;
#X connect 11 0 12 0;
#X connect 11 1 13 0;
#X connect 12 0 5 0;
#X connect 13 0 14 0;
#X connect 14 0 3 0;
#X connect 15 0 18 1;
#X connect 16 0 18 2;
#X connect 17 0 18 3;
#X connect 18 0 6 0;
#X connect 19 0 7 0;
#X restore 721 139 pd EQ;
#N canvas 901 150 467 510 ALLPASS 0;
#X obj 86 60 inlet~;
#X obj 86 408 outlet~;
#X obj 286 382 switch~;
#X obj 286 366 tgl 15 0 empty empty empty 17 7 0 10 #fcfcfc #000000
#000000 0 1;
#X obj 104 221 r \$0-filterType;
#X obj 104 346 vline~;
#X obj 86 367 *~;
#X obj 104 283 sel 0 1;
#X msg 286 325 1;
#X obj 238 304 t b b;
#X msg 238 325 1 10;
#X obj 104 304 t b b;
#X msg 104 325 0 10;
#X obj 161 325 del 10;
#X msg 161 346 0;
#X obj 143 108 r~ \$0-freq~;
#X obj 235 108 r~ \$0-q~;
#X obj 306 108 r~ \$0-gain~;
#X obj 306 170 dbtorms~;
#X obj 306 149 +~ 100;
#X obj 86 190 *~;
#X obj 86 159 else/allpass.2nd~;
#X obj 104 252 == 8;
#X connect 0 0 21 0;
#X connect 3 0 2 0;
#X connect 4 0 22 0;
#X connect 5 0 6 1;
#X connect 6 0 1 0;
#X connect 7 0 11 0;
#X connect 7 1 9 0;
#X connect 8 0 3 0;
#X connect 9 0 10 0;
#X connect 9 1 8 0;
#X connect 10 0 5 0;
#X connect 11 0 12 0;
#X connect 11 1 13 0;
#X connect 12 0 5 0;
#X connect 13 0 14 0;
#X connect 14 0 3 0;
#X connect 15 0 21 1;
#X connect 16 0 21 2;
#X connect 17 0 19 0;
#X connect 18 0 20 1;
#X connect 19 0 18 0;
#X connect 20 0 6 0;
#X connect 21 0 20 0;
#X connect 22 0 7 0;
#X restore 771 139 pd ALLPASS;
#X obj 77 57 inlet~ SIGNAL;
#X obj 197 57 inlet~ FM;
#X obj 277 321 switch~;
#X obj 277 305 tgl 15 0 empty empty empty 17 7 0 10 #fcfcfc #000000
#000000 0 1;
#X obj 95 285 vline~;
#X obj 77 306 *~;
#X obj 95 222 sel 0 1;
#X msg 277 264 1;
#X obj 229 243 t b b;
#X msg 229 264 1 10;
#X obj 95 243 t b b;
#X msg 95 264 0 10;
#X obj 152 264 del 10;
#X msg 152 285 0;
#X obj 95 201 r \$0-active;
#X obj 77 377 outlet~;
#X obj 77 160 +~;
#X text 184 201 DSP DO PROCESSAMENTO;
#X connect 0 0 26 0;
#X connect 1 0 0 0;
#X connect 1 0 2 0;
#X connect 1 0 3 0;
#X connect 1 0 4 0;
#X connect 1 0 9 0;
#X connect 1 0 8 0;
#X connect 1 0 7 0;
#X connect 1 0 6 0;
#X connect 1 0 5 0;
#X connect 2 0 26 0;
#X connect 3 0 26 0;
#X connect 4 0 26 0;
#X connect 5 0 26 0;
#X connect 6 0 26 0;
#X connect 7 0 26 0;
#X connect 8 0 26 0;
#X connect 9 0 26 0;
#X connect 10 0 1 0;
#X connect 11 0 1 1;
#X connect 13 0 12 0;
#X connect 14 0 15 1;
#X connect 15 0 25 0;
#X connect 16 0 20 0;
#X connect 16 1 18 0;
#X connect 17 0 13 0;
#X connect 18 0 19 0;
#X connect 18 1 17 0;
#X connect 19 0 14 0;
#X connect 20 0 21 0;
#X connect 20 1 22 0;
#X connect 21 0 14 0;
#X connect 22 0 23 0;
#X connect 23 0 13 0;
#X connect 24 0 16 0;
#X connect 26 0 15 0;
#X restore 250 74 pd SIGNAL_PROCESSING;
#X obj 250 145 outlet~ SIGNAL;
#N canvas 1660 412 441 375 BYPASS 0;
#X obj 77 57 inlet~ SIGNAL;
#X obj 277 241 switch~;
#X obj 277 225 tgl 15 0 empty empty empty 17 7 0 10 #fcfcfc #000000
#000000 0 1;
#X obj 95 205 vline~;
#X obj 77 226 *~;
#X msg 277 184 1;
#X obj 229 163 t b b;
#X msg 229 184 1 10;
#X obj 95 163 t b b;
#X msg 95 184 0 10;
#X obj 152 184 del 10;
#X msg 152 205 0;
#X obj 95 121 r \$0-active;
#X obj 77 297 outlet~;
#X text 184 121 DSP DO BYPASS;
#X obj 95 142 sel 1 0;
#X connect 0 0 4 0;
#X connect 2 0 1 0;
#X connect 3 0 4 1;
#X connect 4 0 13 0;
#X connect 5 0 2 0;
#X connect 6 0 7 0;
#X connect 6 1 5 0;
#X connect 7 0 3 0;
#X connect 8 0 9 0;
#X connect 8 1 10 0;
#X connect 9 0 3 0;
#X connect 10 0 11 0;
#X connect 11 0 2 0;
#X connect 12 0 15 0;
#X connect 15 0 8 0;
#X connect 15 1 6 0;
#X restore 160 74 pd BYPASS;
#X connect 0 0 29 0;
#X connect 0 0 31 0;
#X connect 1 0 29 1;
#X connect 5 0 4 0;
#X connect 28 0 26 0;
#X connect 29 0 30 0;
#X connect 31 0 30 0;
#X coords 0 -1 1 1 1060 360 1 100 200;
