#N canvas 1043 261 1045 521 12;
#X obj 63 101 hsl 128 19 0 1 0 0 \$0-filter_gui \$0-filter_gui_set FILTER 5 10 0 10 #dfdfdf #000000 #000000 0 1;
#X obj 50 439 outlet;
#X obj 213 294 loadbang;
#X obj 213 336 pdcontrol;
#X obj 160 357 pack s s;
#X msg 50 378 preset \$1;
#X msg 160 378 file \$2/packs/\$1;
#N canvas 500 95 385 278 SCHANGE 0;
#X obj 110 93 t s s;
#X obj 110 130 sel s;
#X text 177 107 [change] symbol!;
#X obj 110 46 inlet;
#X obj 157 204 outlet;
#X obj 157 160 symbol;
#X connect 0 0 1 1;
#X connect 0 1 1 0;
#X connect 1 1 5 0;
#X connect 3 0 0 0;
#X connect 5 0 4 0;
#X restore 160 263 pd SCHANGE;
#X obj 160 242 symbol;
#X obj 50 263 change;
#X obj 451 50 inlet PRESET;
#X obj 50 211 r \$0-preset;
#X obj 160 211 r \$0-file;
#X obj 451 71 s \$0-preset-;
#X obj 580 50 inlet FILTER_FREQ;
#X obj 580 71 s \$0-filter-;
#X msg 213 315 dir 1;
#X obj 764 71 param \$0-preset \$0-memo 1 0;
#X obj 764 133 memo \$0-memo 3 \$1;
#X obj 764 50 param \$0-file \$0-memo 0 pack\$2;
#X floatatom 204 101 5 0 1 0 - \$0-filter_gui_set \$0-filter_gui 0;
#X obj 764 92 param \$0-filter \$0-memo 2 0;
#X floatatom 204 71 5 0 63 0 - \$0-preset_gui_set \$0-preset_gui 0;
#X text 150 71 PRESET;
#X obj 580 439 outlet~ FILTER_FREQ;
#X obj 580 315 r \$0-filter;
#X obj 580 336 * 15000;
#X obj 580 357 pack 0 50;
#X obj 580 378 line~;
#X obj 331 50 inlet BYPASS;
#X obj 331 419 t a;
#X connect 2 0 16 0;
#X connect 3 0 4 1;
#X connect 4 0 6 0;
#X connect 5 0 1 0;
#X connect 6 0 1 0;
#X connect 7 0 4 0;
#X connect 8 0 7 0;
#X connect 9 0 5 0;
#X connect 10 0 13 0;
#X connect 11 0 9 0;
#X connect 12 0 8 0;
#X connect 14 0 15 0;
#X connect 16 0 3 0;
#X connect 25 0 26 0;
#X connect 26 0 27 0;
#X connect 27 0 28 0;
#X connect 28 0 24 0;
#X connect 29 0 30 0;
#X connect 30 0 1 0;
#X coords 0 -1 1 1 200 80 1 50 50;
