#N canvas 953 251 1274 546 12;
#X declare -path else;
#X obj 71 18 declare -path else;
#X obj 630 244 f 0;
#X obj 60 71 hsl 70 19 20 15000 1 0 \$0-freq_gui \$0-freq_gui_set FREQ 5 10 0 10 #dfdfdf #000000 #000000 0 1;
#X floatatom 143 71 7 -15000 15000 0 - \$0-freq_gui_set \$0-freq_gui 0;
#X floatatom 205 71 5 -127 127 0 - \$0-midiNote_gui_set \$0-midiNote_gui 0;
#X obj 894 169 r \$0-midiNote_gui;
#X obj 894 190 mtof;
#X obj 1054 190 ftom;
#X obj 1054 232 s \$0-midiNote_gui_set;
#X msg 1054 211 set \$1;
#X obj 60 127 hsl 70 19 0 1 0 0 \$0-phase_gui \$0-phase_gui_set PHASE 5 10 0 10 #dfdfdf #000000 #000000 0 1;
#X obj 146 127 hsl 70 19 0 1 0 0 \$0-width_gui \$0-width_gui_set SHAPE 5 10 0 10 #dfdfdf #000000 #000000 0 1;
#X obj 1054 169 r \$0-freq;
#X obj 648 223 r \$0-phase;
#X obj 669 88 r \$0-phaseReset;
#X obj 630 109 spigot;
#X obj 630 58 t b;
#X obj 310 258 +~;
#X obj 328 130 r \$0-freq;
#X obj 402 109 r \$0-glide;
#X obj 328 151 else/lag~ 0;
#X obj 60 91 hsl 70 8 0 1 0 0 \$0-glide_gui \$0-glide_gui_set empty -2 -8 0 10 #000000 #ffffff #000000 0 1;
#X obj 402 130 * 3000;
#X obj 894 211 s \$0-freq-;
#X obj 219 127 bng 19 250 50 0 \$0-resetWidth_gui \$0-resetWidth_gui_set empty 17 7 0 10 #000000 #ffffff #000000;
#X obj 894 252 r \$0-resetWidth_gui;
#X msg 894 273 0.5;
#X obj 894 294 s \$0-width-;
#X obj 630 265 s \$0-resetPhase;
#X obj 310 37 inlet~ FREQ_ENV;
#X obj 484 37 inlet~ PM;
#N canvas 162 180 598 390 SINE 0;
#X obj 87 119 phasor~;
#X obj 87 232 cos~;
#X obj 87 211 pow~;
#X obj 273 192 vline~;
#X msg 273 171 \$1 50;
#X text 355 108 ENCONTRADO TESTANDO;
#X obj 273 129 * 20;
#X obj 273 150 + 0.3;
#X obj 273 108 pow 4.8365;
#X obj 273 87 r \$0-width;
#X obj 133 98 r \$0-resetPhase;
#X obj 87 160 +~;
#X obj 87 324 outlet~;
#X obj 87 48 inlet~ FREQ_ENV;
#X obj 231 48 inlet~ PM;
#X obj 355 178 r \$0-wave;
#X obj 355 199 == 0;
#X obj 87 283 *~;
#X obj 355 241 pack 0 10;
#X obj 355 262 vline~;
#X obj 355 220 t f f;
#X obj 443 240 sel 0;
#X obj 443 261 del 10;
#X msg 443 282 0;
#X obj 443 303 switch~;
#X connect 0 0 11 0;
#X connect 1 0 17 0;
#X connect 2 0 1 0;
#X connect 3 0 2 1;
#X connect 4 0 3 0;
#X connect 6 0 7 0;
#X connect 7 0 4 0;
#X connect 8 0 6 0;
#X connect 9 0 8 0;
#X connect 10 0 0 1;
#X connect 11 0 2 0;
#X connect 13 0 0 0;
#X connect 14 0 11 1;
#X connect 15 0 16 0;
#X connect 16 0 20 0;
#X connect 17 0 12 0;
#X connect 18 0 19 0;
#X connect 19 0 17 1;
#X connect 20 0 18 0;
#X connect 20 1 21 0;
#X connect 21 0 22 0;
#X connect 21 1 24 0;
#X connect 22 0 23 0;
#X connect 23 0 24 0;
#X restore 309 365 pd SINE;
#X obj 484 258 +~;
#X obj 143 105 hradio 16 1 0 6 \$0-wave_gui \$0-wave_gui_set SINE 0 -6 0 10 #dfdfdf #000000 #000000 0;
#N canvas 514 92 506 364 SQUARE 0;
#X obj 105 89 r \$0-width;
#X obj 131 172 r \$0-resetPhase;
#X obj 77 295 outlet~;
#X obj 77 48 inlet~ FREQ_ENV;
#X obj 217 48 inlet~ PM;
#X obj 105 131 vline~;
#X msg 105 110 \$1 50;
#X obj 77 254 *~;
#X obj 77 203 else/square~;
#X obj 271 150 r \$0-wave;
#X obj 271 213 pack 0 10;
#X obj 271 234 vline~;
#X obj 271 192 t f f;
#X obj 359 212 sel 0;
#X obj 359 233 del 10;
#X msg 359 254 0;
#X obj 359 275 switch~;
#X obj 271 171 == 2;
#X connect 0 0 6 0;
#X connect 1 0 8 2;
#X connect 3 0 8 0;
#X connect 4 0 8 3;
#X connect 5 0 8 1;
#X connect 6 0 5 0;
#X connect 7 0 2 0;
#X connect 8 0 7 0;
#X connect 9 0 17 0;
#X connect 10 0 11 0;
#X connect 11 0 7 1;
#X connect 12 0 10 0;
#X connect 12 1 13 0;
#X connect 13 0 14 0;
#X connect 13 1 16 0;
#X connect 14 0 15 0;
#X connect 15 0 16 0;
#X connect 17 0 12 0;
#X restore 569 365 pd SQUARE;
#N canvas 421 92 509 379 VSAW 0;
#X obj 99 89 r \$0-width;
#X obj 121 172 r \$0-resetPhase;
#X obj 77 295 outlet~;
#X obj 77 48 inlet~ FREQ_ENV;
#X obj 217 48 inlet~ PM;
#X obj 77 203 else/vsaw~;
#X obj 99 131 vline~;
#X msg 99 110 \$1 50;
#X obj 77 254 *~;
#X obj 271 150 r \$0-wave;
#X obj 271 213 pack 0 10;
#X obj 271 234 vline~;
#X obj 271 192 t f f;
#X obj 359 212 sel 0;
#X obj 359 233 del 10;
#X msg 359 254 0;
#X obj 359 275 switch~;
#X obj 271 171 == 1;
#X connect 0 0 7 0;
#X connect 1 0 5 2;
#X connect 3 0 5 0;
#X connect 4 0 5 3;
#X connect 5 0 8 0;
#X connect 6 0 5 1;
#X connect 7 0 6 0;
#X connect 8 0 2 0;
#X connect 9 0 17 0;
#X connect 10 0 11 0;
#X connect 11 0 8 1;
#X connect 12 0 10 0;
#X connect 12 1 13 0;
#X connect 13 0 14 0;
#X connect 13 1 16 0;
#X connect 14 0 15 0;
#X connect 15 0 16 0;
#X connect 17 0 12 0;
#X restore 439 365 pd VSAW;
#N canvas 501 439 505 412 BL.SQUARE 0;
#X obj 112 89 r \$0-width;
#X obj 77 337 outlet~;
#X obj 77 48 inlet~ FREQ_ENV;
#X obj 217 48 inlet~ PM;
#X obj 112 131 vline~;
#X msg 112 110 \$1 50;
#X obj 77 296 *~;
#X obj 77 256 else/bl.square~;
#X obj 145 235 else/impseq~;
#X obj 145 172 r \$0-resetPhase;
#X obj 145 193 sel 0;
#X msg 145 214 1e-09;
#X obj 291 191 r \$0-wave;
#X obj 291 254 pack 0 10;
#X obj 291 275 vline~;
#X obj 291 233 t f f;
#X obj 379 253 sel 0;
#X obj 379 274 del 10;
#X msg 379 295 0;
#X obj 379 316 switch~;
#X obj 291 212 == 4;
#X connect 0 0 5 0;
#X connect 2 0 7 0;
#X connect 3 0 7 3;
#X connect 4 0 7 1;
#X connect 5 0 4 0;
#X connect 6 0 1 0;
#X connect 7 0 6 0;
#X connect 8 0 7 2;
#X connect 9 0 10 0;
#X connect 10 0 11 0;
#X connect 10 1 8 0;
#X connect 11 0 8 0;
#X connect 12 0 20 0;
#X connect 13 0 14 0;
#X connect 14 0 6 1;
#X connect 15 0 13 0;
#X connect 15 1 16 0;
#X connect 16 0 17 0;
#X connect 16 1 19 0;
#X connect 17 0 18 0;
#X connect 18 0 19 0;
#X connect 20 0 15 0;
#X restore 829 365 pd BL.SQUARE;
#N canvas 736 138 536 421 BP.NOISE 0;
#X obj 247 144 r \$0-width;
#X obj 77 93 r \$0-resetPhase;
#X obj 77 350 outlet~;
#X obj 137 48 inlet~ FREQ_ENV;
#X obj 277 48 inlet~ PM;
#X obj 247 207 vline~;
#X msg 247 186 \$1 50;
#X obj 77 309 *~;
#X obj 77 197 noise~;
#X obj 77 114 * 1000;
#X obj 77 135 int;
#X msg 77 156 seed \$1;
#X obj 77 228 else/resonant~ 0 0;
#X obj 138 197 +~;
#X obj 247 165 * 25;
#X obj 77 269 *~ 0.5;
#X obj 321 204 r \$0-wave;
#X obj 321 267 pack 0 10;
#X obj 321 288 vline~;
#X obj 321 246 t f f;
#X obj 409 266 sel 0;
#X obj 409 287 del 10;
#X msg 409 308 0;
#X obj 409 329 switch~;
#X obj 321 225 == 5;
#X connect 0 0 14 0;
#X connect 1 0 9 0;
#X connect 3 0 13 0;
#X connect 4 0 13 1;
#X connect 5 0 12 2;
#X connect 6 0 5 0;
#X connect 7 0 2 0;
#X connect 8 0 12 0;
#X connect 9 0 10 0;
#X connect 10 0 11 0;
#X connect 11 0 8 0;
#X connect 12 0 15 0;
#X connect 13 0 12 1;
#X connect 14 0 6 0;
#X connect 15 0 7 0;
#X connect 16 0 24 0;
#X connect 17 0 18 0;
#X connect 18 0 7 1;
#X connect 19 0 17 0;
#X connect 19 1 20 0;
#X connect 20 0 21 0;
#X connect 20 1 23 0;
#X connect 21 0 22 0;
#X connect 22 0 23 0;
#X connect 24 0 19 0;
#X restore 979 365 pd BP.NOISE;
#X obj 630 37 r \$1-resetPhase;
#X obj 57 105 tgl 16 0 \$0-phaseReset_gui \$0-phaseReset_gui_set PH_RES 21 8 0 10 #dfdfdf #000000 #000000 0 1;
#N canvas 403 492 518 425 BL.VSAW 0;
#X obj 106 89 r \$0-width;
#X obj 77 337 outlet~;
#X obj 77 48 inlet~ FREQ_ENV;
#X obj 217 48 inlet~ PM;
#X obj 106 131 vline~;
#X msg 106 110 \$1 50;
#X obj 77 296 *~;
#X obj 135 235 else/impseq~;
#X obj 135 172 r \$0-resetPhase;
#X obj 135 193 sel 0;
#X msg 135 214 1e-09;
#X obj 77 256 else/bl.vsaw~;
#X obj 271 191 r \$0-wave;
#X obj 271 254 pack 0 10;
#X obj 271 275 vline~;
#X obj 271 233 t f f;
#X obj 359 253 sel 0;
#X obj 359 274 del 10;
#X msg 359 295 0;
#X obj 359 316 switch~;
#X obj 271 212 == 3;
#X connect 0 0 5 0;
#X connect 2 0 11 0;
#X connect 3 0 11 3;
#X connect 4 0 11 1;
#X connect 5 0 4 0;
#X connect 6 0 1 0;
#X connect 7 0 11 2;
#X connect 8 0 9 0;
#X connect 9 0 10 0;
#X connect 9 1 7 0;
#X connect 10 0 7 0;
#X connect 11 0 6 0;
#X connect 12 0 20 0;
#X connect 13 0 14 0;
#X connect 14 0 6 1;
#X connect 15 0 13 0;
#X connect 15 1 16 0;
#X connect 16 0 17 0;
#X connect 16 1 19 0;
#X connect 17 0 18 0;
#X connect 18 0 19 0;
#X connect 20 0 15 0;
#X restore 689 365 pd BL.VSAW;
#X obj 235 54 bng 11 250 50 0 \$0-reset_gui \$0-reset_gui_set empty 17 7 0 10 #ffffff #000000 #000000;
#X obj 894 37 inlet CONTROL;
#N canvas 538 210 673 321 CONTROL 0;
#X obj 89 50 inlet;
#X obj 89 142 param \$0-freq \$0-memo 0 220;
#X obj 89 163 param \$0-phase \$0-memo 1 0;
#X obj 89 184 param \$0-phaseReset \$0-memo 2 1;
#X obj 89 205 param \$0-width \$0-memo 3 0.5;
#X obj 89 247 param \$0-wave \$0-memo 5 0;
#X obj 356 184 memo \$0-memo 6 \$1;
#X msg 472 163 reset;
#X obj 89 91 route freq phase phaseReset width glide wave;
#X obj 472 91 route reset;
#X obj 472 142 r \$0-reset_gui;
#X obj 89 226 param \$0-glide \$0-memo 4 0;
#X connect 0 0 8 0;
#X connect 7 0 6 1;
#X connect 8 0 1 0;
#X connect 8 1 2 0;
#X connect 8 2 3 0;
#X connect 8 3 4 0;
#X connect 8 4 11 0;
#X connect 8 5 5 0;
#X connect 8 6 9 0;
#X connect 9 0 7 0;
#X connect 10 0 7 0;
#X restore 968 99 pd CONTROL;
#N canvas 1114 226 701 241 WAVE_DISPLAY 0;
#X obj 86 43 r \$0-wave;
#X obj 86 64 sel 0 1 2 3 4 5;
#X msg 86 85 SINE;
#X msg 356 85 NOISE;
#X obj 86 106 symbol;
#X msg 86 127 label \$1;
#X obj 86 148 s \$0-wave_gui_set;
#X msg 126 85 VSAW;
#X msg 220 85 BL.VSAW;
#X msg 166 85 SQUARE;
#X msg 281 85 BL.SQUARE;
#X obj 456 106 symbol;
#X msg 456 127 label \$1;
#X msg 456 85 SHAPE;
#X msg 504 85 WIDTH;
#X msg 552 85 RESONANCE;
#X obj 456 148 s \$0-width_gui_set;
#X connect 0 0 1 0;
#X connect 1 0 2 0;
#X connect 1 0 13 0;
#X connect 1 1 7 0;
#X connect 1 1 13 0;
#X connect 1 2 9 0;
#X connect 1 2 14 0;
#X connect 1 3 8 0;
#X connect 1 3 13 0;
#X connect 1 4 10 0;
#X connect 1 4 14 0;
#X connect 1 5 3 0;
#X connect 1 5 15 0;
#X connect 2 0 4 0;
#X connect 3 0 4 0;
#X connect 4 0 5 0;
#X connect 5 0 6 0;
#X connect 7 0 4 0;
#X connect 8 0 4 0;
#X connect 9 0 4 0;
#X connect 10 0 4 0;
#X connect 11 0 12 0;
#X connect 12 0 16 0;
#X connect 13 0 11 0;
#X connect 14 0 11 0;
#X connect 15 0 11 0;
#X restore 139 365 pd WAVE_DISPLAY;
#X obj 894 68 route float;
#X obj 926 130 switch~;
#X obj 309 478 outlet~;
#X obj 309 386 +~;
#X obj 894 109 t f f;
#X obj 630 151 sel 0 1;
#X obj 630 130 f 0;
#X text 707 142 AGUARDA CUTOFF NO ENVELOPE EM CASO DE RETRIGGER, f 17;
#X obj 653 172 del 3;
#X connect 1 0 28 0;
#X connect 5 0 6 0;
#X connect 6 0 23 0;
#X connect 7 0 9 0;
#X connect 9 0 8 0;
#X connect 12 0 7 0;
#X connect 13 0 1 1;
#X connect 14 0 15 1;
#X connect 15 0 51 0;
#X connect 16 0 15 0;
#X connect 17 0 31 0;
#X connect 17 0 35 0;
#X connect 17 0 34 0;
#X connect 17 0 36 0;
#X connect 17 0 37 0;
#X connect 17 0 40 0;
#X connect 18 0 20 0;
#X connect 19 0 22 0;
#X connect 20 0 17 1;
#X connect 22 0 20 1;
#X connect 25 0 26 0;
#X connect 26 0 27 0;
#X connect 29 0 17 0;
#X connect 30 0 32 0;
#X connect 31 0 48 0;
#X connect 32 0 31 1;
#X connect 32 0 35 1;
#X connect 32 0 34 1;
#X connect 32 0 36 1;
#X connect 32 0 37 1;
#X connect 32 0 40 1;
#X connect 34 0 48 0;
#X connect 35 0 48 0;
#X connect 36 0 48 0;
#X connect 37 0 48 0;
#X connect 38 0 16 0;
#X connect 40 0 48 0;
#X connect 42 0 45 0;
#X connect 45 0 49 0;
#X connect 45 1 43 0;
#X connect 48 0 47 0;
#X connect 49 0 51 1;
#X connect 49 1 46 0;
#X connect 50 0 1 0;
#X connect 50 1 53 0;
#X connect 51 0 50 0;
#X connect 53 0 1 0;
#X coords 0 -1 1 1 200 105 1 50 50;
