#N canvas 143 46 1588 856 12;
#X declare -path abs -path abs/comemo-pd-1.1 -path abs/audio_abs -path else;
#N canvas 0 0 433 175 DECLARE 0;
#X obj 72 50 declare -path abs -path abs/comemo-pd-1.1 -path abs/audio_abs -path else, f 41;
#X restore 1412 142 pd DECLARE;
#X floatatom 197 39 5 0 999 0 - \$0-bpm_gui_set \$0-bpm_gui 16;
#X obj 95 33 tgl 35 0 \$0-play_gui \$0-play_gui_set empty 17 7 0 10 #606060 #ffffff #000000 0 1;
#X obj 1412 70 inlet CONTROL;
#N canvas 1442 379 960 478 CONTROL 0;
#X obj 83 53 inlet;
#X obj 83 94 route bpm;
#X msg 640 144 reset;
#X obj 510 94 route reset;
#X obj 83 323 param \$0-bpm \$0-memo 8 133;
#X obj 510 165 memo \$0-memo 9 \$0-1;
#X obj 83 135 param \$0-file1 \$0-memo 0 pack1;
#X obj 83 156 param \$0-preset1 \$0-memo 1 0;
#X obj 83 177 param \$0-file2 \$0-memo 2 pack2;
#X obj 83 198 param \$0-preset2 \$0-memo 3 0;
#X obj 83 219 param \$0-file3 \$0-memo 4 pack3;
#X obj 83 240 param \$0-preset3 \$0-memo 5 0;
#X obj 83 261 param \$0-file4 \$0-memo 6 pack4;
#X obj 83 282 param \$0-preset4 \$0-memo 7 0;
#X connect 0 0 1 0;
#X connect 1 0 4 0;
#X connect 2 0 5 1;
#X connect 3 0 2 0;
#X restore 1412 101 pd CONTROL;
#N canvas 674 149 455 408 MOTOR 0;
#X obj 121 191 tgl 15 0 empty empty empty 17 7 0 10 #fcfcfc #000000 #000000 0 1;
#X obj 121 207 metro 200;
#X floatatom 181 187 5 0 0 0 - - - 0;
#X obj 121 228 else/count 31;
#X msg 181 124 60000 \$1;
#X obj 181 145 /;
#X obj 181 103 r \$0-bpm;
#X obj 121 52 r \$0-play_gui;
#X obj 121 289 outlet;
#X obj 181 166 / 4;
#X msg 245 207 reset;
#X obj 245 186 r \$0-resetMotor_gui;
#X obj 121 73 t f b;
#X obj 209 268 t b;
#X obj 209 289 s \$0-clock;
#X connect 0 0 1 0;
#X connect 1 0 3 0;
#X connect 2 0 1 1;
#X connect 3 0 8 0;
#X connect 3 0 13 0;
#X connect 4 0 5 0;
#X connect 5 0 9 0;
#X connect 6 0 4 0;
#X connect 7 0 12 0;
#X connect 9 0 2 0;
#X connect 10 0 3 0;
#X connect 11 0 10 0;
#X connect 12 0 0 0;
#X connect 12 1 10 0;
#X connect 13 0 14 0;
#X restore 95 89 pd MOTOR;
#X obj 95 110 EUCLIDS \$0-1;
#X obj 316 110 EUCLIDS \$0-1;
#X obj 537 110 EUCLIDS \$0-1;
#X obj 758 110 EUCLIDS \$0-1;
#X obj 95 483 mix1~ \$0-1;
#X obj 1192 70 presets3 \$0-1;
#X obj 1192 54 bng 15 250 50 0 empty empty empty 17 7 0 10 #fcfcfc #000000 #000000;
#X obj 95 442 DUMTS 35 10;
#X obj 316 442 DUMTS 36 10;
#X obj 537 442 DUMTS 37 10;
#X obj 758 442 DUMTS 38 10;
#X obj 316 483 mix1~ \$0-1;
#X obj 537 483 mix1~ \$0-1;
#X obj 758 483 mix1~ \$0-1;
#X obj 1049 110 mixbus~ \$0-1;
#X obj 1049 361 compressorST \$0-1;
#X obj 1049 662 else/out~;
#X obj 141 33 bng 35 250 50 0 \$0-resetMotor_gui \$0-resetMotor_gui_set < 11 17 0 20 #fcfcfc #000000 #000000;
#X text 252 41 BPM;
#X obj 1177 662 else/meter2~;
#X obj 1412 203 r \$0-clock;
#X floatatom 1440 234 5 0 0 0 - - - 0;
#X obj 1412 254 f;
#X obj 1412 275 change;
#X obj 95 361 interface \$0-1 1;
#X obj 316 361 interface \$0-1 2;
#X obj 537 361 interface \$0-1 3;
#X obj 758 361 interface \$0-1 4;
#X connect 3 0 4 0;
#X connect 5 0 6 0;
#X connect 5 0 7 0;
#X connect 5 0 8 0;
#X connect 5 0 9 0;
#X connect 6 0 30 0;
#X connect 7 0 31 0;
#X connect 8 0 32 0;
#X connect 9 0 33 0;
#X connect 12 0 11 0;
#X connect 13 0 10 0;
#X connect 14 0 17 0;
#X connect 15 0 18 0;
#X connect 16 0 19 0;
#X connect 20 0 21 0;
#X connect 20 1 21 1;
#X connect 21 0 22 0;
#X connect 21 0 25 0;
#X connect 21 1 22 1;
#X connect 21 1 25 1;
#X connect 26 0 28 0;
#X connect 27 0 28 1;
#X connect 28 0 29 0;
#X connect 29 0 11 1;
#X connect 30 0 13 0;
#X connect 30 1 13 1;
#X connect 31 0 14 0;
#X connect 31 1 14 1;
#X connect 32 0 15 0;
#X connect 32 1 15 1;
#X connect 33 0 16 0;
#X connect 33 1 16 1;
