#N canvas 100 0 2035 982 12;
#X declare -path abs -path abs/comemo-pd-1.1 -path abs/audio_abs -path else;
#X obj 64 642 *~;
#X obj 1768 441 else/out~;
#N canvas 0 0 450 250 (subpatch) 0;
#X array \$0-graph 9600 float 0;
#X coords 0 1 9599 -1 750 200 1 0 0;
#X restore 64 744 graph;
#X floatatom 326 48 5 0 0 0 - - \$0-memo-dur 16;
#X obj 145 31 bng 50 250 50 0 \$0-trigger_gui \$0-trigger_gui_set empty 17 7 0 10 #000000 #dfdfdf #000000;
#X obj 325 642 *~;
#X obj 343 455 envelope \$0-memo;
#X obj 326 118 envelope \$0-memo;
#X obj 587 642 *~;
#X obj 161 305 else/display;
#X obj 422 305 else/display;
#X obj 683 305 else/display;
#X obj 701 642 else/display;
#X obj 439 642 else/display;
#X obj 178 642 else/display;
#X obj 1674 356 else/meter~;
#X obj 587 118 envelope \$0-memo;
#X obj 605 455 envelope \$0-memo;
#X obj 65 335 oscillator \$0-memo;
#X obj 326 335 oscillator \$0-memo;
#X obj 588 335 oscillator \$0-memo;
#X obj 1423 34 bng 25 250 50 0 empty empty empty 17 7 0 10 #0400ff #000000 #000000;
#X obj 64 693 +~;
#X obj 1423 357 envelope \$0-memo;
#X obj 896 577 filter \$0-memo;
#X obj 844 714 +~;
#N canvas 210 127 536 138 DECLARE+INIT 0;
#X obj 56 36 loadbang;
#X msg 56 57 \; pd dsp 1;
#X obj 167 36 declare -path abs -path abs/comemo-pd-1.1 -path abs/audio_abs -path else, f 41;
#X connect 0 0 1 0;
#X restore 1674 101 pd DECLARE+INIT;
#X obj 361 653 hradio 19 1 0 2 \$0-route2_gui \$0-route2_gui_set empty 0 -8 0 10 #fcfcfc #000000 #000000 0;
#N canvas 438 258 347 277 ROUTE_2 0;
#X obj 53 34 inlet~;
#X obj 53 214 outlet~ MOD;
#X obj 203 214 outlet~ OUT;
#X obj 53 185 *~;
#X obj 203 185 *~;
#X msg 71 122 0;
#X obj 71 143 pack 0 10;
#X obj 71 164 line~;
#X msg 102 122 1;
#X msg 221 122 0;
#X obj 221 143 pack 0 10;
#X obj 221 164 line~;
#X msg 252 122 1;
#X obj 189 55 sel 0 1;
#X obj 189 76 t b b;
#X obj 239 76 t b b;
#X obj 189 34 r \$0-route2;
#X connect 0 0 3 0;
#X connect 0 0 4 0;
#X connect 3 0 1 0;
#X connect 4 0 2 0;
#X connect 5 0 6 0;
#X connect 6 0 7 0;
#X connect 7 0 3 1;
#X connect 8 0 6 0;
#X connect 9 0 10 0;
#X connect 10 0 11 0;
#X connect 11 0 4 1;
#X connect 12 0 10 0;
#X connect 13 0 14 0;
#X connect 13 1 15 0;
#X connect 14 0 8 0;
#X connect 14 1 9 0;
#X connect 15 0 5 0;
#X connect 15 1 12 0;
#X connect 16 0 13 0;
#X restore 325 673 pd ROUTE_2;
#N canvas 438 258 347 277 ROUTE_3 0;
#X obj 53 34 inlet~;
#X obj 53 214 outlet~ MOD;
#X obj 203 214 outlet~ OUT;
#X obj 53 185 *~;
#X obj 203 185 *~;
#X msg 71 122 0;
#X obj 71 143 pack 0 10;
#X obj 71 164 line~;
#X msg 102 122 1;
#X msg 221 122 0;
#X obj 221 143 pack 0 10;
#X obj 221 164 line~;
#X msg 252 122 1;
#X obj 189 55 sel 0 1;
#X obj 189 76 t b b;
#X obj 239 76 t b b;
#X obj 189 34 r \$0-route3;
#X connect 0 0 3 0;
#X connect 0 0 4 0;
#X connect 3 0 1 0;
#X connect 4 0 2 0;
#X connect 5 0 6 0;
#X connect 6 0 7 0;
#X connect 7 0 3 1;
#X connect 8 0 6 0;
#X connect 9 0 10 0;
#X connect 10 0 11 0;
#X connect 11 0 4 1;
#X connect 12 0 10 0;
#X connect 13 0 14 0;
#X connect 13 1 15 0;
#X connect 14 0 8 0;
#X connect 14 1 9 0;
#X connect 15 0 5 0;
#X connect 15 1 12 0;
#X connect 16 0 13 0;
#X restore 587 673 pd ROUTE_3;
#X obj 623 653 hradio 19 1 0 2 \$0-route3_gui \$0-route3_gui_set empty 0 -8 0 10 #fcfcfc #000000 #000000 0;
#X obj 1674 39 inlet CONTROL;
#N canvas 430 152 767 388 CONTROL 0;
#X obj 93 65 inlet;
#X obj 421 220 s \$0-trigger_gui_set;
#X obj 524 189 s \$0-preset;
#X obj 421 271 memo \$0-voice_memo 4 \$0-memo;
#X obj 93 199 param \$0-amp \$0-voice_memo 0 1;
#X obj 93 240 param \$0-route2 \$0-voice_memo 1 1;
#X obj 93 261 param \$0-route3 \$0-voice_memo 2 1;
#X obj 93 282 param \$0-graphSize \$0-voice_memo 3 200;
#X obj 93 116 route amp float route2 route3 graphSize;
#X obj 147 147 moses 1.01;
#X obj 214 168 / 127;
#X obj 421 116 route bang trigger preset file;
#X obj 576 147 symbol;
#X msg 576 168 read \$1;
#N canvas 0 0 313 320 MIDI_IN 0;
#X obj 93 73 notein \$2;
#X text 91 48 MIDI IN (CANAL \$2);
#X obj 93 104 stripnote;
#X obj 93 125 sel \$1;
#X obj 93 146 f;
#X obj 93 167 / 127;
#X msg 93 188 amp \$1 \, bang;
#X obj 93 239 outlet;
#X connect 0 0 2 0;
#X connect 0 1 2 1;
#X connect 2 0 3 0;
#X connect 2 1 4 1;
#X connect 3 0 4 0;
#X connect 4 0 5 0;
#X connect 5 0 6 0;
#X connect 6 0 7 0;
#X restore 163 65 pd MIDI_IN;
#X connect 0 0 8 0;
#X connect 8 0 4 0;
#X connect 8 1 9 0;
#X connect 8 2 5 0;
#X connect 8 3 6 0;
#X connect 8 4 7 0;
#X connect 8 5 11 0;
#X connect 9 0 4 0;
#X connect 9 1 10 0;
#X connect 10 0 4 0;
#X connect 11 0 1 0;
#X connect 11 1 1 0;
#X connect 11 2 2 0;
#X connect 11 3 12 0;
#X connect 12 0 13 0;
#X connect 13 0 2 0;
#X connect 14 0 8 0;
#X restore 1674 70 pd CONTROL;
#X obj 896 143 effects \$0-memo;
#X obj 1519 544 else/display;
#X obj 844 124 +~;
#N canvas 790 267 614 267 TRIGGER+GRAPH 0;
#X msg 387 169 resize \$1;
#X obj 412 106 samplerate~;
#X obj 412 127 / 1000;
#X obj 387 148 * 48;
#X obj 387 190 s \$0-graph;
#X text 385 29 REDIMENSIONA GRÁFICO;
#X obj 412 85 loadbang;
#X obj 387 54 r \$0-graphSize;
#X obj 64 54 r \$0-trigger_gui;
#X obj 110 116 tabwrite~ \$0-graph;
#X obj 64 178 s \$0-memo-trig;
#X obj 87 147 s \$0-memo-resetPhase;
#X obj 64 75 t b b b;
#X obj 221 54 inlet~ SIGNAL;
#X obj 221 75 outlet~ SIGNAL;
#X connect 0 0 4 0;
#X connect 1 0 2 0;
#X connect 2 0 3 1;
#X connect 3 0 0 0;
#X connect 6 0 1 0;
#X connect 7 0 3 0;
#X connect 8 0 12 0;
#X connect 12 0 10 0;
#X connect 12 1 11 0;
#X connect 12 2 9 0;
#X connect 13 0 9 0;
#X connect 13 0 14 0;
#X restore 1768 356 pd TRIGGER+GRAPH;
#X obj 844 936 +~;
#X obj 844 103 +~;
#X obj 1127 122 +~;
#X obj 1127 143 compressor \$0-memo;
#X obj 1127 444 +~;
#X obj 1357 463 +~;
#X obj 1357 316 +~;
#X obj 1831 399 outlet~;
#X obj 280 693 +~;
#X obj 280 314 +~;
#X obj 541 693 +~;
#X obj 541 314 +~;
#X obj 1423 60 presets3 \$0-memo;
#X obj 65 118 envelope \$0-memo;
#X obj 82 455 envelope \$0-memo;
#X obj 1511 18 r \$0-preset;
#X text 323 23 DURAÇÃO GLOBAL;
#X floatatom 456 48 5 0 0 0 - \$0-graphSize_gui_set \$0-graphSize_gui 16;
#X text 453 23 GRÁFICO (MSEC);
#X obj 1511 39 route float;
#X obj 1140 493 hsl 128 19 0 1 0 0 \$0-amp_gui \$0-amp_gui_set AMPLITUDE 5 10 0 10 #000000 #ffffff #ffffff 0 1;
#X floatatom 1281 493 5 0 1 0 - \$0-amp_gui_set \$0-amp_gui 0;
#N canvas 0 0 349 284 FINAL_AMPLITUDE 0;
#X obj 137 48 inlet~;
#X obj 137 203 outlet~;
#X obj 137 162 *~;
#X obj 155 99 r \$0-amp;
#X obj 155 141 line~;
#X obj 155 120 pack 0 10;
#X connect 0 0 2 0;
#X connect 2 0 1 0;
#X connect 3 0 5 0;
#X connect 4 0 2 1;
#X connect 5 0 4 0;
#X restore 1674 335 pd FINAL_AMPLITUDE;
#X obj 1820 287 +~;
#X obj 1931 308 +~;
#X obj 1931 556 +~;
#X obj 1820 39 inlet~ FILTER_FM;
#X connect 0 0 22 0;
#X connect 5 0 28 0;
#X connect 6 0 5 1;
#X connect 6 2 13 0;
#X connect 6 4 19 2;
#X connect 7 0 19 0;
#X connect 7 2 10 0;
#X connect 8 0 29 0;
#X connect 16 0 20 0;
#X connect 16 2 11 0;
#X connect 17 0 8 1;
#X connect 17 2 12 0;
#X connect 17 4 20 2;
#X connect 18 0 0 0;
#X connect 19 0 5 0;
#X connect 20 0 8 0;
#X connect 21 0 49 0;
#X connect 22 0 25 0;
#X connect 23 0 24 1;
#X connect 23 2 34 0;
#X connect 24 0 37 1;
#X connect 25 0 35 0;
#X connect 28 0 45 0;
#X connect 28 1 22 0;
#X connect 29 0 47 0;
#X connect 29 1 22 0;
#X connect 31 0 32 0;
#X connect 33 0 24 0;
#X connect 35 0 33 0;
#X connect 36 0 1 0;
#X connect 36 0 44 0;
#X connect 37 0 38 0;
#X connect 38 0 39 0;
#X connect 39 0 40 0;
#X connect 40 0 41 0;
#X connect 41 0 42 0;
#X connect 42 0 43 0;
#X connect 43 0 59 0;
#X connect 45 0 46 0;
#X connect 46 0 18 1;
#X connect 47 0 48 0;
#X connect 48 0 19 1;
#X connect 50 0 18 0;
#X connect 50 2 9 0;
#X connect 51 0 0 1;
#X connect 51 2 14 0;
#X connect 51 4 18 2;
#X connect 52 0 56 0;
#X connect 56 0 49 1;
#X connect 56 1 49 0;
#X connect 59 0 15 0;
#X connect 59 0 36 0;
#X connect 60 0 61 0;
#X connect 61 0 62 0;
#X connect 62 0 24 1;
#X connect 63 0 60 0;
