#N canvas 100 0 2035 982 12;
#X declare -path abs -path abs/comemo-pd-1.1 -path abs/audio_abs -path else;
#N canvas 254 0 1325 932 MODELO 0;
#X obj 110 436 *~;
#X obj 110 355 *~ 100;
#X obj 110 376 +~ 50;
#X floatatom 170 375 5 0 0 0 - - - 0;
#X obj 235 719 graph~;
#X floatatom 170 355 5 0 0 0 - - - 0;
#X obj 110 646 else/drive~;
#X obj 184 610 nbx 5 14 -1e+37 1e+37 0 0 empty empty empty 0 -8 0 10 #dcdcdc #000000 #000000 0 256;
#X obj 187 594 hsl 128 15 0 5 0 0 empty empty empty -2 -8 0 10 #dcdcdc #000000 #000000 0 1;
#X obj 184 625 else/float2sig~ 50;
#X obj 110 687 gain~ 1 0 20 0 0.922222;
#X text 397 216 1;
#X obj 110 323 else/envgen~;
#X text 396 310 0;
#X obj 191 222 else/function 200 100 empty empty 0 1 220 220 220 50 50 50 0 0 0 0 0 10 1 25 0.6 50 0.6 100 0;
#X obj 191 201 else/initmess 0 10 1 25 0.6 50 0.6 100 0;
#X text 706 308 1;
#X obj 419 415 else/envgen~;
#X obj 500 314 else/function 200 100 empty empty 0 1 220 220 220 50 50 50 0 0 0 0 0 10 1 25 0.6 50 0.6 100 0;
#X obj 500 293 else/initmess 0 10 1 25 0.6 50 0.6 100 0;
#X obj 110 152 bng 18 250 50 0 empty empty empty 17 7 0 10 #dcdcdc #000000 #000000;
#X obj 489 191 t b;
#X floatatom 348 160 5 0 0 0 - - - 0;
#X msg 348 180 duration \$1 \, bang;
#X floatatom 500 242 5 0 0 0 - - - 0;
#X msg 500 262 duration \$1 \, bang;
#X obj 536 792 *~;
#X floatatom 726 720 5 0 0 0 - - - 0;
#X floatatom 726 700 5 0 0 0 - - - 0;
#X text 823 572 1;
#X obj 536 679 else/envgen~;
#X text 822 666 0;
#X obj 617 578 else/function 200 100 empty empty 0 1 220 220 220 50 50 50 0 0 0 0 0 10 1 25 0.6 50 0.6 100 0;
#X obj 617 557 else/initmess 0 10 1 25 0.6 50 0.6 100 0;
#X obj 536 527 t b b;
#X text 1032 654 1;
#X obj 845 771 else/envgen~;
#X obj 926 670 else/function 200 100 empty empty 0 1 220 220 220 50 50 50 0 0 0 0 0 10 1 25 0.6 50 0.6 100 0;
#X obj 926 649 else/initmess 0 10 1 25 0.6 50 0.6 100 0;
#X obj 915 547 t b;
#X floatatom 774 516 5 0 0 0 - - - 0;
#X msg 774 536 duration \$1 \, bang;
#X floatatom 926 598 5 0 0 0 - - - 0;
#X msg 926 618 duration \$1 \, bang;
#X obj 332 340 osc~ 220;
#X obj 332 361 gain~ 1 0 20 0 0.566667;
#X obj 559 211 else/envgen~;
#X obj 640 110 else/function 200 100 empty empty 0 1 220 220 220 50 50 50 0 0 0 0 0 10 1 25 0.6 50 0.6 100 0;
#X obj 640 89 else/initmess 0 10 1 25 0.6 50 0.6 100 0;
#X obj 559 190 t b;
#X floatatom 640 48 5 0 0 0 - - - 0;
#X msg 640 68 duration \$1 \, bang;
#X obj 400 340 *~ 100;
#X obj 400 361 +~ 50;
#X floatatom 450 360 5 0 0 0 - - - 0;
#X floatatom 450 340 5 0 0 0 - - - 0;
#X obj 110 171 t b b b;
#X obj 133 218 t f f;
#X msg 133 197 0;
#X obj 536 720 noise~;
#X obj 536 751 vcf~ 3;
#X obj 656 700 *~ 10000;
#X obj 656 721 +~ 500;
#X floatatom 583 752 5 0 0 0 - - - 0;
#X obj 110 415 else/tri~ 50;
#X obj 110 810 else/out~;
#X connect 0 0 6 0;
#X connect 1 0 2 0;
#X connect 2 0 64 0;
#X connect 3 0 2 1;
#X connect 5 0 1 1;
#X connect 6 0 10 0;
#X connect 7 0 9 0;
#X connect 8 0 7 0;
#X connect 9 0 6 1;
#X connect 10 0 65 0;
#X connect 10 0 65 1;
#X connect 10 0 4 0;
#X connect 12 0 1 0;
#X connect 14 0 12 1;
#X connect 15 0 14 0;
#X connect 17 0 0 1;
#X connect 18 0 17 1;
#X connect 19 0 18 0;
#X connect 20 0 56 0;
#X connect 21 0 17 0;
#X connect 22 0 23 0;
#X connect 23 0 14 0;
#X connect 24 0 25 0;
#X connect 25 0 18 0;
#X connect 26 0 6 0;
#X connect 27 0 62 1;
#X connect 28 0 61 1;
#X connect 30 0 61 0;
#X connect 32 0 30 1;
#X connect 33 0 32 0;
#X connect 34 0 30 0;
#X connect 34 1 39 0;
#X connect 36 0 26 1;
#X connect 37 0 36 1;
#X connect 38 0 37 0;
#X connect 39 0 36 0;
#X connect 40 0 41 0;
#X connect 41 0 32 0;
#X connect 42 0 43 0;
#X connect 43 0 37 0;
#X connect 44 0 45 0;
#X connect 45 0 64 2;
#X connect 46 0 52 0;
#X connect 47 0 46 1;
#X connect 48 0 47 0;
#X connect 49 0 46 0;
#X connect 50 0 51 0;
#X connect 51 0 47 0;
#X connect 52 0 53 0;
#X connect 53 0 44 0;
#X connect 54 0 53 1;
#X connect 55 0 52 1;
#X connect 56 0 12 0;
#X connect 56 1 21 0;
#X connect 56 1 49 0;
#X connect 56 2 58 0;
#X connect 57 0 64 1;
#X connect 57 1 44 1;
#X connect 58 0 57 0;
#X connect 59 0 60 0;
#X connect 60 0 26 0;
#X connect 61 0 62 0;
#X connect 62 0 60 1;
#X connect 63 0 60 2;
#X connect 64 0 0 0;
#X restore 1674 183 pd MODELO 1;
#X obj 64 642 *~;
#X obj 1768 441 else/out~;
#N canvas 0 0 450 250 (subpatch) 0;
#X array \$0-graph 4320 float 0;
#X coords 0 1 4319 -1 750 200 1 0 0;
#X restore 64 744 graph;
#X floatatom 326 48 5 0 0 0 - - \$0-memo-dur 16;
#X obj 145 31 bng 50 250 50 0 \$0-trigger_gui \$0-trigger_gui_set empty 17 7 0 10 #000000 #dfdfdf #000000;
#X obj 325 642 *~;
#X obj 343 455 envelope \$0-memo;
#X obj 326 118 envelope \$0-memo;
#X obj 587 642 *~;
#X obj 161 305 else/display;
#X obj 422 305 else/display;
#X obj 683 305 else/display;
#X obj 701 642 else/display;
#X obj 439 642 else/display;
#X obj 178 642 else/display;
#X obj 1674 356 else/meter~;
#X obj 587 118 envelope \$0-memo;
#X obj 605 455 envelope \$0-memo;
#X obj 65 335 oscillator \$0-memo;
#X obj 326 335 oscillator \$0-memo;
#X obj 588 335 oscillator \$0-memo;
#X obj 1423 34 bng 25 250 50 0 empty empty empty 17 7 0 10 #0400ff #000000 #000000;
#X obj 64 693 +~;
#N canvas 538 0 1168 897 ESQUEMA 0;
#N canvas 0 0 450 300 AMP_ENV 0;
#X obj 116 38 inlet;
#X obj 116 63 outlet;
#X connect 0 0 1 0;
#X restore 202 312 pd AMP_ENV;
#X obj 184 341 *;
#N canvas 0 0 450 300 PITCH_ENV 0;
#X obj 116 38 inlet;
#X obj 116 63 outlet;
#X connect 0 0 1 0;
#X restore 184 240 pd PITCH_ENV;
#N canvas 0 0 450 300 TRIGGER 0;
#X obj 115 176 outlet;
#X obj 112 78 inlet;
#X restore 184 122 pd TRIGGER;
#X obj 184 164 t b b b b b b;
#N canvas 0 0 450 300 DRIVE 0;
#X obj 116 38 inlet;
#X obj 116 63 outlet;
#X connect 0 0 1 0;
#X restore 184 460 pd DRIVE / SHAPE;
#N canvas 0 0 450 300 FILTER_ENV 0;
#X obj 116 38 inlet;
#X obj 116 63 outlet;
#X connect 0 0 1 0;
#X restore 314 509 pd FILTER_ENV;
#N canvas 0 0 450 300 COMPRESSOR 0;
#X obj 37 37 inlet;
#X obj 37 197 outlet;
#X restore 184 586 pd COMPRESSOR;
#N canvas 0 0 450 300 OUT 0;
#X obj 37 37 inlet;
#X restore 184 691 pd OUT;
#N canvas 0 0 450 300 ROUTE 0;
#X obj 116 38 inlet;
#X obj 116 63 outlet;
#X obj 258 63 outlet;
#X connect 0 0 1 0;
#X restore 514 386 pd ROUTE OSC 2;
#N canvas 0 0 450 300 GLOBAL 0;
#X obj 116 38 inlet;
#X obj 116 63 outlet;
#X connect 0 0 1 0;
#X restore 349 122 pd GLOBAL DURATION;
#X obj 349 157 s TO ENVs;
#X text 261 209 OSC 1;
#N canvas 0 0 450 300 AMP_ENV 0;
#X obj 116 38 inlet;
#X obj 116 63 outlet;
#X connect 0 0 1 0;
#X restore 532 312 pd AMP_ENV;
#X obj 514 341 *;
#N canvas 0 0 450 300 PITCH_ENV 0;
#X obj 116 38 inlet;
#X obj 116 63 outlet;
#X connect 0 0 1 0;
#X restore 514 240 pd PITCH_ENV;
#X text 591 209 OSC 2;
#N canvas 0 0 450 300 OSC 0;
#X obj 116 38 inlet;
#X obj 116 63 outlet;
#X obj 258 38 inlet;
#X connect 0 0 1 0;
#X restore 184 276 pd OSC = SIN / TRI / SAW / SQR / NOISE+BP;
#N canvas 0 0 450 300 OSC 0;
#X obj 116 38 inlet;
#X obj 116 63 outlet;
#X obj 258 38 inlet;
#X connect 0 0 1 0;
#X restore 514 276 pd OSC = SIN / TRI / SAW / SQR / NOISE+BP;
#N canvas 721 173 648 586 PHASE 0;
#X obj 286 328 graph~;
#X obj 161 296 gain~ 1 0 20 0 1;
#X obj 161 419 else/out~;
#X obj 159 196 phasor~;
#X floatatom 159 176 5 0 0 0 - - - 0;
#X obj 159 246 cos~;
#X obj 240 143 hsl 128 15 0 1 0 0 empty empty empty -2 -8 0 10 #fcfcfc #000000 #000000 0 1;
#X obj 237 163 * 20;
#X obj 237 188 - 10;
#X obj 159 221 pow~;
#X obj 237 237 vline~;
#X msg 237 216 \$1 50;
#X text 200 103 PHASE DISTORTION;
#X connect 1 0 2 0;
#X connect 1 0 2 1;
#X connect 1 0 0 0;
#X connect 3 0 9 0;
#X connect 4 0 3 0;
#X connect 5 0 1 0;
#X connect 6 0 7 0;
#X connect 7 0 8 0;
#X connect 8 0 11 0;
#X connect 9 0 5 0;
#X connect 10 0 9 1;
#X connect 11 0 10 0;
#X restore 325 240 pd PHASE DISTORTION;
#N canvas 0 0 450 300 AMP_ENV 0;
#X obj 116 38 inlet;
#X obj 116 63 outlet;
#X connect 0 0 1 0;
#X restore 862 362 pd AMP_ENV;
#X obj 844 391 *;
#X text 921 209 NOISE;
#N canvas 0 0 450 300 NOISE 0;
#X obj 116 38 inlet;
#X obj 116 63 outlet;
#X obj 258 38 inlet;
#X connect 0 0 1 0;
#X restore 844 240 pd NOISE;
#N canvas 0 0 450 300 FILTER 0;
#X obj 116 38 inlet;
#X obj 116 63 outlet;
#X obj 196 38 inlet;
#X connect 0 0 1 0;
#X restore 844 306 pd FILTER;
#N canvas 0 0 450 300 FILTER_ENV 0;
#X obj 116 38 inlet;
#X obj 116 63 outlet;
#X obj 196 38 inlet;
#X connect 0 0 1 0;
#X restore 904 277 pd FILTER_ENV;
#N canvas 0 0 450 300 MULTIMODE_FILTER 0;
#X obj 116 38 inlet;
#X obj 116 63 outlet;
#X obj 276 38 inlet;
#X connect 0 0 1 0;
#X restore 184 541 pd MULTIMODE_FILTER;
#N canvas 0 0 450 300 LIMITER 0;
#X obj 37 37 inlet;
#X obj 37 197 outlet;
#X restore 184 626 pd LIMITER;
#X connect 0 0 1 1;
#X connect 1 0 5 0;
#X connect 2 0 17 0;
#X connect 3 0 4 0;
#X connect 4 0 2 0;
#X connect 4 1 0 0;
#X connect 5 0 26 0;
#X connect 6 0 26 1;
#X connect 7 0 27 0;
#X connect 9 0 17 1;
#X connect 9 1 5 0;
#X connect 10 0 11 0;
#X connect 13 0 14 1;
#X connect 14 0 9 0;
#X connect 15 0 18 0;
#X connect 17 0 1 0;
#X connect 18 0 14 0;
#X connect 20 0 21 1;
#X connect 21 0 5 0;
#X connect 23 0 24 0;
#X connect 24 0 21 0;
#X connect 25 0 24 1;
#X connect 26 0 7 0;
#X connect 27 0 8 0;
#X restore 1674 152 pd ESQUEMA;
#X obj 1423 357 envelope \$0-memo;
#X obj 896 577 filter \$0-memo;
#X obj 844 714 +~;
#N canvas 210 127 536 138 DECLARE+INIT 0;
#X obj 56 36 loadbang;
#X msg 56 57 \; pd dsp 1;
#X obj 167 36 declare -path abs -path abs/comemo-pd-1.1 -path abs/audio_abs -path else, f 41;
#X connect 0 0 1 0;
#X restore 1674 101 pd DECLARE+INIT;
#X obj 361 653 hradio 19 1 0 2 \$0-route2_gui \$0-route2_gui_set empty 0 -8 0 10 #fcfcfc #000000 #000000 0;
#N canvas 438 258 347 277 ROUTE_2 0;
#X obj 53 34 inlet~;
#X obj 53 214 outlet~ MOD;
#X obj 203 214 outlet~ OUT;
#X obj 53 185 *~;
#X obj 203 185 *~;
#X msg 71 122 0;
#X obj 71 143 pack 0 10;
#X obj 71 164 line~;
#X msg 102 122 1;
#X msg 221 122 0;
#X obj 221 143 pack 0 10;
#X obj 221 164 line~;
#X msg 252 122 1;
#X obj 189 55 sel 0 1;
#X obj 189 76 t b b;
#X obj 239 76 t b b;
#X obj 189 34 r \$0-route2;
#X connect 0 0 3 0;
#X connect 0 0 4 0;
#X connect 3 0 1 0;
#X connect 4 0 2 0;
#X connect 5 0 6 0;
#X connect 6 0 7 0;
#X connect 7 0 3 1;
#X connect 8 0 6 0;
#X connect 9 0 10 0;
#X connect 10 0 11 0;
#X connect 11 0 4 1;
#X connect 12 0 10 0;
#X connect 13 0 14 0;
#X connect 13 1 15 0;
#X connect 14 0 8 0;
#X connect 14 1 9 0;
#X connect 15 0 5 0;
#X connect 15 1 12 0;
#X connect 16 0 13 0;
#X restore 325 673 pd ROUTE_2;
#N canvas 438 258 347 277 ROUTE_3 0;
#X obj 53 34 inlet~;
#X obj 53 214 outlet~ MOD;
#X obj 203 214 outlet~ OUT;
#X obj 53 185 *~;
#X obj 203 185 *~;
#X msg 71 122 0;
#X obj 71 143 pack 0 10;
#X obj 71 164 line~;
#X msg 102 122 1;
#X msg 221 122 0;
#X obj 221 143 pack 0 10;
#X obj 221 164 line~;
#X msg 252 122 1;
#X obj 189 55 sel 0 1;
#X obj 189 76 t b b;
#X obj 239 76 t b b;
#X obj 189 34 r \$0-route3;
#X connect 0 0 3 0;
#X connect 0 0 4 0;
#X connect 3 0 1 0;
#X connect 4 0 2 0;
#X connect 5 0 6 0;
#X connect 6 0 7 0;
#X connect 7 0 3 1;
#X connect 8 0 6 0;
#X connect 9 0 10 0;
#X connect 10 0 11 0;
#X connect 11 0 4 1;
#X connect 12 0 10 0;
#X connect 13 0 14 0;
#X connect 13 1 15 0;
#X connect 14 0 8 0;
#X connect 14 1 9 0;
#X connect 15 0 5 0;
#X connect 15 1 12 0;
#X connect 16 0 13 0;
#X restore 587 673 pd ROUTE_3;
#X obj 623 653 hradio 19 1 0 2 \$0-route3_gui \$0-route3_gui_set empty 0 -8 0 10 #fcfcfc #000000 #000000 0;
#X obj 1674 39 inlet CONTROL;
#N canvas 430 152 767 388 CONTROL 0;
#X obj 93 65 inlet;
#X obj 421 220 s \$0-trigger_gui_set;
#X obj 524 189 s \$0-preset;
#X obj 421 271 memo \$0-voice_memo 4 \$0-memo;
#X obj 93 199 param \$0-amp \$0-voice_memo 0 1;
#X obj 93 240 param \$0-route2 \$0-voice_memo 1 1;
#X obj 93 261 param \$0-route3 \$0-voice_memo 2 1;
#X obj 93 282 param \$0-graphSize \$0-voice_memo 3 200;
#X obj 93 116 route amp float route2 route3 graphSize;
#X obj 147 147 moses 1.01;
#X obj 214 168 / 127;
#X obj 421 116 route bang trigger preset file;
#X obj 576 147 symbol;
#X msg 576 168 read \$1;
#N canvas 0 0 313 320 MIDI_IN 0;
#X obj 93 73 notein \$2;
#X text 91 48 MIDI IN (CANAL \$2);
#X obj 93 104 stripnote;
#X obj 93 125 sel \$1;
#X obj 93 146 f;
#X obj 93 167 / 127;
#X msg 93 188 amp \$1 \, bang;
#X obj 93 239 outlet;
#X connect 0 0 2 0;
#X connect 0 1 2 1;
#X connect 2 0 3 0;
#X connect 2 1 4 1;
#X connect 3 0 4 0;
#X connect 4 0 5 0;
#X connect 5 0 6 0;
#X connect 6 0 7 0;
#X restore 163 65 pd MIDI_IN;
#X connect 0 0 8 0;
#X connect 8 0 4 0;
#X connect 8 1 9 0;
#X connect 8 2 5 0;
#X connect 8 3 6 0;
#X connect 8 4 7 0;
#X connect 8 5 11 0;
#X connect 9 0 4 0;
#X connect 9 1 10 0;
#X connect 10 0 4 0;
#X connect 11 0 1 0;
#X connect 11 1 1 0;
#X connect 11 2 2 0;
#X connect 11 3 12 0;
#X connect 12 0 13 0;
#X connect 13 0 2 0;
#X connect 14 0 8 0;
#X restore 1674 70 pd CONTROL;
#X obj 896 143 effects \$0-memo;
#X obj 1519 544 else/display;
#X obj 844 124 +~;
#N canvas 790 267 614 267 TRIGGER+GRAPH 0;
#X msg 387 169 resize \$1;
#X obj 412 106 samplerate~;
#X obj 412 127 / 1000;
#X obj 387 148 * 48;
#X obj 387 190 s \$0-graph;
#X text 385 29 REDIMENSIONA GRÁFICO;
#X obj 412 85 loadbang;
#X obj 387 54 r \$0-graphSize;
#X obj 64 54 r \$0-trigger_gui;
#X obj 110 116 tabwrite~ \$0-graph;
#X obj 64 178 s \$0-memo-trig;
#X obj 87 147 s \$0-memo-resetPhase;
#X obj 64 75 t b b b;
#X obj 221 54 inlet~ SIGNAL;
#X obj 221 75 outlet~ SIGNAL;
#X connect 0 0 4 0;
#X connect 1 0 2 0;
#X connect 2 0 3 1;
#X connect 3 0 0 0;
#X connect 6 0 1 0;
#X connect 7 0 3 0;
#X connect 8 0 12 0;
#X connect 12 0 10 0;
#X connect 12 1 11 0;
#X connect 12 2 9 0;
#X connect 13 0 9 0;
#X connect 13 0 14 0;
#X restore 1768 356 pd TRIGGER+GRAPH;
#X obj 844 936 +~;
#X obj 844 103 +~;
#X obj 1127 122 +~;
#X obj 1127 143 compressor \$0-memo;
#X obj 1127 444 +~;
#X obj 1357 463 +~;
#X obj 1357 316 +~;
#X obj 1831 399 outlet~;
#X obj 280 693 +~;
#X obj 280 314 +~;
#X obj 541 693 +~;
#X obj 541 314 +~;
#X obj 1423 60 presets3 \$0-memo;
#X obj 65 118 envelope \$0-memo;
#X obj 82 455 envelope \$0-memo;
#X obj 1511 18 r \$0-preset;
#X text 323 23 DURAÇÃO GLOBAL;
#X floatatom 456 48 5 0 0 0 - \$0-graphSize_gui_set \$0-graphSize_gui 16;
#X text 453 23 GRÁFICO (MSEC);
#X obj 1511 39 route float;
#X obj 1140 493 hsl 128 19 0 1 0 0 \$0-amp_gui \$0-amp_gui_set AMPLITUDE 5 10 0 10 #000000 #ffffff #ffffff 0 1;
#X floatatom 1281 493 5 0 1 0 - \$0-amp_gui_set \$0-amp_gui 0;
#N canvas 0 0 349 284 FINAL_AMPLITUDE 0;
#X obj 137 48 inlet~;
#X obj 137 203 outlet~;
#X obj 137 162 *~;
#X obj 155 99 r \$0-amp;
#X obj 155 141 line~;
#X obj 155 120 pack 0 10;
#X connect 0 0 2 0;
#X connect 2 0 1 0;
#X connect 3 0 5 0;
#X connect 4 0 2 1;
#X connect 5 0 4 0;
#X restore 1674 335 pd FINAL_AMPLITUDE;
#X obj 1820 287 +~;
#X obj 1931 308 +~;
#X obj 1931 556 +~;
#X obj 1820 39 inlet~ FILTER_FM;
#X connect 1 0 23 0;
#X connect 6 0 30 0;
#X connect 7 0 6 1;
#X connect 7 2 14 0;
#X connect 7 4 20 2;
#X connect 8 0 20 0;
#X connect 8 2 11 0;
#X connect 9 0 31 0;
#X connect 17 0 21 0;
#X connect 17 2 12 0;
#X connect 18 0 9 1;
#X connect 18 2 13 0;
#X connect 18 4 21 2;
#X connect 19 0 1 0;
#X connect 20 0 6 0;
#X connect 21 0 9 0;
#X connect 22 0 51 0;
#X connect 23 0 27 0;
#X connect 25 0 26 1;
#X connect 25 2 36 0;
#X connect 26 0 39 1;
#X connect 27 0 37 0;
#X connect 30 0 47 0;
#X connect 30 1 23 0;
#X connect 31 0 49 0;
#X connect 31 1 23 0;
#X connect 33 0 34 0;
#X connect 35 0 26 0;
#X connect 37 0 35 0;
#X connect 38 0 2 0;
#X connect 38 0 46 0;
#X connect 39 0 40 0;
#X connect 40 0 41 0;
#X connect 41 0 42 0;
#X connect 42 0 43 0;
#X connect 43 0 44 0;
#X connect 44 0 45 0;
#X connect 45 0 61 0;
#X connect 47 0 48 0;
#X connect 48 0 19 1;
#X connect 49 0 50 0;
#X connect 50 0 20 1;
#X connect 52 0 19 0;
#X connect 52 2 10 0;
#X connect 53 0 1 1;
#X connect 53 2 15 0;
#X connect 53 4 19 2;
#X connect 54 0 58 0;
#X connect 58 0 51 1;
#X connect 58 1 51 0;
#X connect 61 0 16 0;
#X connect 61 0 38 0;
#X connect 62 0 63 0;
#X connect 63 0 64 0;
#X connect 64 0 26 1;
#X connect 65 0 62 0;
