#N canvas 313 220 842 550 12;
#X declare -path abs -path abs/comemo-pd-1.1 -path abs/audio_abs -path else;
#N canvas 0 0 433 175 DECLARE 0;
#X obj 72 50 declare -path abs -path abs/comemo-pd-1.1 -path abs/audio_abs -path else, f 41;
#X restore 659 119 pd DECLARE;
#X obj 332 85 r \$0-steps;
#X obj 417 85 r \$0-hits;
#X obj 495 85 r \$0-rotation;
#X obj 307 47 inlet FLOAT;
#X obj 346 241 r \$0-invert;
#X obj 346 262 t f f;
#X obj 307 314 spigot;
#X obj 346 293 == 0;
#X obj 398 314 spigot;
#X obj 437 293 == 1;
#X obj 659 47 inlet CONTROL;
#N canvas 832 275 693 301 CONTROL 0;
#X obj 74 39 inlet;
#X obj 74 70 route steps hits rotation invert active;
#X obj 74 111 param \$0-steps \$0-memo 0 32;
#X obj 74 132 param \$0-hits \$0-memo 1 8;
#X obj 74 153 param \$0-rotation \$0-memo 2 0;
#X obj 74 174 param \$0-invert \$0-memo 3 0;
#X obj 74 195 param \$0-active \$0-memo 4 1;
#X obj 336 153 memo \$0-memo 5 \$1;
#X msg 452 132 reset;
#X obj 452 111 r \$0-reset_gui;
#X obj 452 70 route reset;
#X connect 0 0 1 0;
#X connect 1 0 2 0;
#X connect 1 1 3 0;
#X connect 1 2 4 0;
#X connect 1 3 5 0;
#X connect 1 4 6 0;
#X connect 1 5 10 0;
#X connect 8 0 7 1;
#X connect 9 0 8 0;
#X connect 10 0 8 0;
#X restore 659 78 pd CONTROL;
#X obj 307 200 else/euclid 32 8 0;
#X obj 307 478 outlet BANG;
#X obj 307 375 spigot;
#X obj 346 354 r \$0-active;
#X obj 63 127 hsl 128 19 0 32 0 0 \$0-hits_gui \$0-hits_gui_set HITS 5 10 0 10 #dfdfdf #000000 #000000 0 1;
#X obj 63 157 hsl 128 19 0 32 0 0 \$0-rotation_gui \$0-rotation_gui_set ROTATION 5 10 0 10 #dfdfdf #000000 #000000 0 1;
#X floatatom 204 127 5 0 32 0 - \$0-hits_gui_set \$0-hits_gui 0;
#X floatatom 204 157 5 0 32 0 - \$0-rotation_gui_set \$0-rotation_gui 0;
#X obj 63 97 hsl 128 19 0 32 0 0 \$0-steps_gui \$0-steps_gui_set STEPS 5 10 0 10 #000000 #ffffff #ffffff 0 1;
#X floatatom 204 97 5 0 32 0 - \$0-steps_gui_set \$0-steps_gui 0;
#X obj 235 54 bng 11 250 50 0 \$0-reset_gui \$0-reset_gui_set empty 17 7 0 10 #ffffff #000000 #000000;
#X obj 50 71 cnv 2 200 2 empty empty empty 20 12 0 14 #000000 #404040 0;
#X obj 50 84 cnv 2 200 2 empty empty empty 20 12 0 14 #000000 #404040 0;
#X obj 55 74 hradio 9 1 0 21 \$0-activeBang_gui \$0-activeBang_gui_set empty 0 -8 0 10 #fcfcfc #000000 #000000 0;
#X obj 51 74 cnv 9 198 9 empty \$0-activeStatus empty 20 12 0 14 #14e814 #14e814 0;
#N canvas 609 261 406 462 ACTIVE_BUTTON 0;
#X obj 102 286 sel 0 1;
#X msg 102 307 color 1 1 1;
#X msg 202 307 color 16 16 16;
#X text 100 73 COR DO BOTÃO ACTIVE;
#X obj 102 328 s \$0-activeStatus;
#X obj 102 98 r \$0-activeBang_gui;
#X obj 120 150 r \$0-active;
#X obj 102 192 f;
#X obj 102 119 bang;
#X obj 120 171 t f f;
#X obj 102 213 == 0;
#X text 142 213 INVERSOR;
#X obj 102 234 t f f;
#X obj 134 255 s \$0-active-;
#X connect 0 0 1 0;
#X connect 0 1 2 0;
#X connect 1 0 4 0;
#X connect 2 0 4 0;
#X connect 5 0 8 0;
#X connect 6 0 9 0;
#X connect 7 0 10 0;
#X connect 8 0 7 0;
#X connect 9 0 7 1;
#X connect 9 1 0 0;
#X connect 10 0 12 0;
#X connect 12 0 0 0;
#X connect 12 1 13 0;
#X restore 659 160 pd ACTIVE_BUTTON;
#X obj 332 106 int;
#X obj 417 106 int;
#X obj 495 106 int;
#X obj 174 187 tgl 19 0 \$0-invert_gui \$0-invert_gui_set INVERT 30 10 0 10 #dfdfdf #000000 #000000 0 1;
#X obj 60 187 bng 19 250 50 0 \$0-trigger_gui \$0-trigger_gui_set empty 17 7 0 10 #000000 #ffffff #000000;
#X obj 307 396 s \$0-trigger_gui_set;
#X obj 307 437 r \$0-trigger_gui;
#X obj 307 148 % 32;
#X obj 332 127 t f f;
#X obj 307 169 t f f;
#X obj 457 478 outlet STEP;
#X connect 1 0 29 0;
#X connect 2 0 30 0;
#X connect 3 0 31 0;
#X connect 4 0 36 0;
#X connect 5 0 6 0;
#X connect 6 0 8 0;
#X connect 6 1 10 0;
#X connect 7 0 15 0;
#X connect 8 0 7 1;
#X connect 9 0 15 0;
#X connect 10 0 9 1;
#X connect 11 0 12 0;
#X connect 13 0 7 0;
#X connect 13 1 9 0;
#X connect 15 0 34 0;
#X connect 16 0 15 1;
#X connect 29 0 37 0;
#X connect 30 0 13 2;
#X connect 31 0 13 3;
#X connect 35 0 14 0;
#X connect 36 0 38 0;
#X connect 37 0 36 1;
#X connect 37 1 13 1;
#X connect 38 0 13 0;
#X connect 38 1 39 0;
#X coords 0 -1 1 1 200 167 1 50 50;
