#N canvas 451 297 724 434 10;
#X obj 331 345 tabwrite~ \$0-curve;
#N canvas 0 50 450 250 (subpatch) 0;
#X array \$0-curve 12000 float 0;
#X coords 0 1 11999 -1 200 140 1;
#X restore 473 223 graph;
#X obj 67 52 inlet TRIGGER;
#X obj 67 75 moses;
#X obj 94 104 sel 0;
#X obj 231 174 del \$1;
#X obj 202 101 t f f;
#X obj 231 230 * 0.01;
#X obj 231 202 f \$3;
#X obj 231 258 * 1;
#X obj 94 133 t b b;
#X msg 94 156 stop;
#X obj 331 286 pack 0 \$4;
#X obj 151 286 pack 0 \$1;
#X obj 231 286 pack 0 \$2;
#X obj 35 60 tgl 15 0 empty empty empty 17 7 0 10 -262144 -1 -1 0 1
;
#X obj 202 52 inlet A;
#X obj 262 52 inlet D;
#X obj 322 52 inlet S;
#X obj 382 52 inlet R;
#X obj 150 382 outlet~;
#X obj 151 133 t f b f b;
#X text 172 16 ** ADSR SIMPLES - BASEADO EM D02.adsr.pd;
#X obj 473 175 array size \$0-curve;
#X msg 473 85 48000;
#X msg 473 65 24000;
#X msg 473 45 12000;
#X msg 473 105 96000;
#X msg 473 125 192000;
#X text 514 64 500 msec;
#X text 514 44 250 msec;
#X text 514 84 1 sec;
#X text 514 104 2 sec;
#X text 521 124 4 sec;
#X msg 473 145 480000;
#X text 521 144 10 sec;
#X obj 151 327 vline~;
#X connect 2 0 3 0;
#X connect 3 1 4 0;
#X connect 4 0 10 0;
#X connect 4 1 21 0;
#X connect 5 0 8 0;
#X connect 6 0 13 1;
#X connect 6 1 5 1;
#X connect 7 0 9 0;
#X connect 8 0 7 0;
#X connect 9 0 14 0;
#X connect 10 0 11 0;
#X connect 10 1 12 0;
#X connect 11 0 5 0;
#X connect 12 0 36 0;
#X connect 13 0 36 0;
#X connect 14 0 36 0;
#X connect 15 0 3 0;
#X connect 16 0 6 0;
#X connect 17 0 14 1;
#X connect 18 0 8 1;
#X connect 19 0 12 1;
#X connect 21 0 13 0;
#X connect 21 1 5 0;
#X connect 21 2 9 1;
#X connect 21 3 0 0;
#X connect 24 0 23 0;
#X connect 25 0 23 0;
#X connect 26 0 23 0;
#X connect 27 0 23 0;
#X connect 28 0 23 0;
#X connect 34 0 23 0;
#X connect 36 0 0 0;
#X connect 36 0 20 0;
