#N canvas 2 109 240 260 10;
#N canvas 2 165 205 152 DW~ 0;
#X obj 47 37 inlet~;
#X obj 47 60 delwrite~ \$0-del 5;
#X obj 47 99 outlet~ DUMMY;
#X connect 0 0 1 0;
#X restore 43 127 pd DW~;
#N canvas 481 344 263 232 DR~ 0;
#X obj 47 196 outlet~;
#X obj 47 27 inlet~ DUMMY;
#X obj 47 162 delread~ \$0-del 5;
#N canvas 629 481 354 261 BLOCKSIZE_MSEC 0;
#X obj 78 53 loadbang;
#X obj 78 72 bng 15 250 50 0 empty empty empty 17 7 0 10 -262144 -1
-1;
#X obj 78 88 samplerate~;
#X obj 78 107 / 1000;
#X text 222 89 BLOCK SIZE;
#X obj 78 126 pack f 64;
#X obj 78 145 swap;
#X obj 78 164 /;
#X floatatom 138 182 8 0 0 0 - - -, f 8;
#X text 192 183 MSEC / BLOCK;
#X text 31 19 ** CALCULA TEMPO EM MSEG DE 1 BLOCO DE ÁUDIO;
#X obj 186 108 t b f;
#X obj 141 53 inlet;
#X obj 78 213 outlet;
#X obj 186 53 inlet BLOCK;
#X floatatom 186 90 5 0 0 0 - - -, f 5;
#X connect 0 0 1 0;
#X connect 1 0 2 0;
#X connect 2 0 3 0;
#X connect 3 0 5 0;
#X connect 5 0 6 0;
#X connect 6 0 7 0;
#X connect 6 1 7 1;
#X connect 7 0 8 0;
#X connect 7 0 13 0;
#X connect 11 0 5 0;
#X connect 11 1 5 1;
#X connect 12 0 1 0;
#X connect 14 0 15 0;
#X connect 15 0 11 0;
#X restore 47 133 pd BLOCKSIZE_MSEC;
#X obj 47 117 bng 15 250 50 0 empty empty empty 17 7 0 10 -262144 -1
-1;
#X obj 107 66 loadbang;
#X obj 107 85 f \$1;
#X obj 107 104 moses 1;
#X obj 170 66 r \$0-block;
#X connect 2 0 0 0;
#X connect 3 0 2 0;
#X connect 4 0 3 0;
#X connect 5 0 6 0;
#X connect 6 0 7 0;
#X connect 7 1 3 1;
#X connect 8 0 7 0;
#X restore 43 156 pd DR~;
#X obj 43 88 inlet~;
#X obj 43 195 outlet~;
#X obj 114 88 inlet BLOCK;
#X obj 114 117 s \$0-block;
#X text 41 29 ** DELAY DE 1 BLOCO - 1 ARGUMENTO = TAMANHO DO BLOCO
(PADRÃO 64), f 21;
#X connect 0 0 1 0;
#X connect 1 0 3 0;
#X connect 2 0 0 0;
#X connect 4 0 5 0;
