#N canvas 495 133 558 389 10;
#X obj 47 40 inlet~;
#X obj 46 132 *~;
#X obj 47 329 outlet~;
#X obj 121 75 r \$0-lvl;
#X obj 121 94 clip 0 1;
#N canvas 345 561 226 181 RAMP~ 0;
#X obj 77 47 inlet;
#X obj 77 85 line~;
#X obj 77 104 outlet~;
#X obj 77 66 pack 0 50;
#X connect 0 0 3 0;
#X connect 1 0 2 0;
#X connect 3 0 1 0;
#X restore 121 113 pd RAMP~;
#X obj 183 148 r \$0-bus;
#X obj 184 41 hsl 75 12 0 1 0 0 \$0-lvl_gui \$0-lvl_gui_set BUS_STEREO
3 7 0 8 #fcfcfc #000000 #000000 0 1;
#X text 268 38 GUI;
#X obj 346 108 r \$0-label;
#X msg 346 146 label \$1;
#X obj 346 165 s \$0-lvl_gui_set;
#X obj 426 108 r \$0-color;
#X obj 346 127 symbol;
#X msg 426 127 color \$1 \$2 \$3;
#X obj 183 300 *~;
#N canvas 345 617 227 215 CUTOFF~ 0;
#X obj 87 33 inlet;
#X obj 87 138 line~;
#X obj 87 167 outlet~;
#X obj 87 62 t b b;
#X msg 114 100 0;
#X msg 87 100 1;
#X obj 87 81 del 10;
#X obj 87 119 pack 0 10;
#X connect 0 0 3 0;
#X connect 1 0 2 0;
#X connect 3 0 6 0;
#X connect 3 1 4 0;
#X connect 4 0 7 0;
#X connect 5 0 7 0;
#X connect 6 0 5 0;
#X connect 7 0 1 0;
#X restore 198 281 pd CUTOFF~;
#X obj 183 205 symbol;
#X text 232 185 ESPERA CUTOFF;
#X obj 183 186 del 10;
#X obj 183 329 throw~ \$0-dummy_L;
#X obj 303 329 throw~ \$0-dummy_R;
#X obj 183 348 catch~ \$0-dummy_L;
#X obj 303 348 catch~ \$0-dummy_R;
#X obj 107 40 inlet~;
#X obj 106 132 *~;
#X obj 107 329 outlet~;
#X obj 303 300 *~;
#X obj 183 243 t a a;
#X msg 183 262 set \$2-\$1_L;
#X msg 303 262 set \$2-\$1_R;
#X obj 183 224 pack s s;
#X obj 346 40 inlet EXT_CTL;
#N canvas 721 265 670 361 CONTROL_MEMORY 0;
#X obj 46 28 inlet EXT_CTL;
#X obj 46 286 symbol;
#X obj 82 238 clip 0 1;
#X obj 119 190 symbol;
#X obj 155 142 list;
#X text 475 113 MEMÓRIA LOCAL;
#X obj 46 57 route bus lvl label color reset;
#X msg 459 94 reset;
#X obj 360 113 memo \$0-memo 4 \$1;
#X obj 155 161 param \$0-color \$0-memo 3 0 22 22;
#X obj 82 257 param \$0-lvl \$0-memo 1 0;
#X obj 46 305 param \$0-bus \$0-memo 0 \$2;
#X obj 119 209 param \$0-label \$0-memo 2 \$3;
#X connect 0 0 6 0;
#X connect 1 0 11 0;
#X connect 2 0 10 0;
#X connect 3 0 12 0;
#X connect 4 0 9 0;
#X connect 6 0 1 0;
#X connect 6 1 2 0;
#X connect 6 2 3 0;
#X connect 6 3 4 0;
#X connect 6 4 7 0;
#X connect 7 0 8 1;
#X restore 346 69 pd CONTROL_MEMORY;
#X obj 228 205 symbol \$1;
#X obj 183 167 t b s b b;
#X connect 0 0 1 0;
#X connect 0 0 2 0;
#X connect 1 0 15 0;
#X connect 3 0 4 0;
#X connect 4 0 5 0;
#X connect 5 0 1 1;
#X connect 5 0 25 1;
#X connect 6 0 35 0;
#X connect 9 0 13 0;
#X connect 10 0 11 0;
#X connect 12 0 14 0;
#X connect 13 0 10 0;
#X connect 14 0 11 0;
#X connect 15 0 20 0;
#X connect 16 0 15 1;
#X connect 16 0 27 1;
#X connect 17 0 31 0;
#X connect 19 0 17 0;
#X connect 24 0 25 0;
#X connect 24 0 26 0;
#X connect 25 0 27 0;
#X connect 27 0 21 0;
#X connect 28 0 29 0;
#X connect 28 1 30 0;
#X connect 29 0 20 0;
#X connect 30 0 21 0;
#X connect 31 0 28 0;
#X connect 32 0 33 0;
#X connect 34 0 31 1;
#X connect 35 0 19 0;
#X connect 35 1 17 1;
#X connect 35 2 16 0;
#X connect 35 3 34 0;
#X coords 0 -1 1 1 82 14 2 180 40;
