#N canvas 759 134 1037 666 12;
#X obj 681 48 inlet CONTROL;
#N canvas 1184 287 715 320 CONTROL 0;
#X obj 70 48 inlet;
#X obj 70 130 param \$0-on \$0-memo 0 0;
#X msg 437 202 reset;
#X obj 321 89 route sync reset;
#X obj 70 172 param \$0-scale \$0-memo 2 1;
#X obj 70 193 param \$0-offset \$0-memo 3 0;
#X obj 70 89 route on freq scale offset;
#X obj 321 223 memo \$0-memo 4 \$1;
#X obj 321 120 t b;
#X obj 437 181 r \$0-reset_gui;
#X obj 70 151 param \$0-freq \$0-memo 1 \$2;
#X obj 321 141 s \$0-sync_gui_set;
#X obj 498 89 route bang float;
#X obj 552 120 s \$0-freq-;
#X connect 0 0 6 0;
#X connect 2 0 7 1;
#X connect 3 0 8 0;
#X connect 3 1 2 0;
#X connect 3 2 12 0;
#X connect 6 0 1 0;
#X connect 6 1 10 0;
#X connect 6 2 4 0;
#X connect 6 3 5 0;
#X connect 6 4 3 0;
#X connect 8 0 11 0;
#X connect 9 0 2 0;
#X connect 12 0 8 0;
#X connect 12 1 13 0;
#X restore 681 79 pd CONTROL;
#X obj 215 162 phasor~;
#X obj 215 197 cos~;
#X obj 495 197 expr~ ($v1 > 0.5) * 2 - 1;
#X obj 695 197 noise~;
#X obj 215 48 r \$0-freq;
#X obj 240 340 r \$0-scale;
#X obj 214 382 *~;
#X obj 240 361 pack 0 20;
#X obj 240 382 line~;
#X obj 215 308 +~;
#X obj 240 434 pack 0 20;
#X obj 240 455 line~;
#X obj 240 413 r \$0-offset;
#X obj 214 455 +~;
#X obj 214 546 *~;
#X obj 240 525 pack 0 20;
#X obj 240 546 line~;
#X obj 240 504 r \$0-on;
#X obj 695 260 samphold~;
#X obj 755 181 +~;
#X obj 214 607 outlet~ SINE;
#X obj 380 340 r \$0-scale;
#X obj 354 382 *~;
#X obj 380 361 pack 0 20;
#X obj 380 382 line~;
#X obj 355 308 +~;
#X obj 380 434 pack 0 20;
#X obj 380 455 line~;
#X obj 380 413 r \$0-offset;
#X obj 354 455 +~;
#X obj 354 546 *~;
#X obj 380 525 pack 0 20;
#X obj 380 546 line~;
#X obj 380 504 r \$0-on;
#X obj 520 340 r \$0-scale;
#X obj 494 382 *~;
#X obj 520 361 pack 0 20;
#X obj 520 382 line~;
#X obj 495 308 +~;
#X obj 520 434 pack 0 20;
#X obj 520 455 line~;
#X obj 520 413 r \$0-offset;
#X obj 494 455 +~;
#X obj 494 546 *~;
#X obj 520 525 pack 0 20;
#X obj 520 546 line~;
#X obj 520 504 r \$0-on;
#X obj 720 340 r \$0-scale;
#X obj 694 382 *~;
#X obj 720 361 pack 0 20;
#X obj 720 382 line~;
#X obj 695 308 +~;
#X obj 720 434 pack 0 20;
#X obj 720 455 line~;
#X obj 720 413 r \$0-offset;
#X obj 694 455 +~;
#X obj 694 546 *~;
#X obj 720 525 pack 0 20;
#X obj 720 546 line~;
#X obj 720 504 r \$0-on;
#X obj 694 607 outlet~ RANDOM;
#X obj 215 69 pack 0 10;
#X obj 215 90 line~;
#X obj 215 111 +~;
#X obj 261 120 r \$0-sync_gui;
#X msg 261 141 0;
#X obj 383 48 inlet~ FM;
#X obj 64 75 hsl 65 10 0.001 100 1 0 \$0-freqBar_gui \$0-freqBar_gui_set
empty -2 -8 0 10 #bbbbbb #000000 #000000 0 1;
#X floatatom 61 89 7 0 0 1 FREQ \$0-freq_gui_set \$0-freq_gui 10;
#X obj 149 75 bng 10 250 50 0 \$0-reset_gui \$0-reset_gui_set empty
17 7 0 10 #000000 #ffffff #000000;
#X obj 142 110 bng 17 250 50 0 \$0-sync_gui \$0-sync_gui_set SYNC -27
8 0 10 #ffffff #000000 #000000;
#X floatatom 67 110 6 0 0 0 * \$0-scale_gui_set \$0-scale_gui 10;
#X floatatom 68 131 6 0 0 0 + \$0-offset_gui_set \$0-offset_gui 10
;
#N canvas 0 0 453 221 FREQ_BAR 0;
#X obj 93 73 r \$0-freq;
#X msg 93 94 set \$1;
#X obj 93 115 s \$0-freqBar_gui_set;
#X obj 253 73 r \$0-freqBar_gui;
#X obj 253 94 s \$0-freq-;
#X connect 0 0 1 0;
#X connect 1 0 2 0;
#X connect 3 0 4 0;
#X restore 681 120 pd FREQ_BAR;
#X obj 834 607 outlet~ RAW_PHASE;
#X obj 142 131 tgl 17 0 \$0-on_gui \$0-on_gui_set ON -16 8 0 10 #c6ffc7
#000000 #000000 0 1;
#X obj 215 218 *~ 0.5;
#X obj 215 239 +~ 0.5;
#X obj 695 218 *~ 0.5;
#X obj 695 239 +~ 0.5;
#X obj 354 607 outlet~ SAW;
#X obj 494 607 outlet~ SQUARE;
#X connect 0 0 1 0;
#X connect 2 0 3 0;
#X connect 2 0 4 0;
#X connect 2 0 21 0;
#X connect 2 0 27 0;
#X connect 3 0 78 0;
#X connect 4 0 40 0;
#X connect 5 0 80 0;
#X connect 6 0 63 0;
#X connect 7 0 9 0;
#X connect 8 0 15 0;
#X connect 9 0 10 0;
#X connect 10 0 8 1;
#X connect 11 0 8 0;
#X connect 12 0 13 0;
#X connect 13 0 15 1;
#X connect 14 0 12 0;
#X connect 15 0 16 0;
#X connect 16 0 22 0;
#X connect 17 0 18 0;
#X connect 18 0 16 1;
#X connect 19 0 17 0;
#X connect 20 0 53 0;
#X connect 21 0 20 1;
#X connect 21 0 76 0;
#X connect 23 0 25 0;
#X connect 24 0 31 0;
#X connect 25 0 26 0;
#X connect 26 0 24 1;
#X connect 27 0 24 0;
#X connect 28 0 29 0;
#X connect 29 0 31 1;
#X connect 30 0 28 0;
#X connect 31 0 32 0;
#X connect 32 0 82 0;
#X connect 33 0 34 0;
#X connect 34 0 32 1;
#X connect 35 0 33 0;
#X connect 36 0 38 0;
#X connect 37 0 44 0;
#X connect 38 0 39 0;
#X connect 39 0 37 1;
#X connect 40 0 37 0;
#X connect 41 0 42 0;
#X connect 42 0 44 1;
#X connect 43 0 41 0;
#X connect 44 0 45 0;
#X connect 45 0 83 0;
#X connect 46 0 47 0;
#X connect 47 0 45 1;
#X connect 48 0 46 0;
#X connect 49 0 51 0;
#X connect 50 0 57 0;
#X connect 51 0 52 0;
#X connect 52 0 50 1;
#X connect 53 0 50 0;
#X connect 54 0 55 0;
#X connect 55 0 57 1;
#X connect 56 0 54 0;
#X connect 57 0 58 0;
#X connect 58 0 62 0;
#X connect 59 0 60 0;
#X connect 60 0 58 1;
#X connect 61 0 59 0;
#X connect 63 0 64 0;
#X connect 64 0 65 0;
#X connect 65 0 2 0;
#X connect 66 0 67 0;
#X connect 67 0 2 1;
#X connect 68 0 65 1;
#X connect 78 0 79 0;
#X connect 79 0 11 0;
#X connect 80 0 81 0;
#X connect 81 0 20 0;
#X coords 0 -1 1 1 120 110 1 50 50;
