#N canvas 353 258 798 292 12;
#X obj 55 55 tgl 20 0 \$0-on_gui \$0-on_gui_set empty 17 7 0 10 #fc2828
#000000 #fcfcfc 0 1;
#X obj 396 80 sel 1;
#X msg 396 122 color \$1;
#X msg 428 101 13;
#X msg 396 101 16;
#X obj 121 49 inlet~;
#X obj 121 173 outlet~;
#X obj 121 132 *~;
#X obj 139 111 line~;
#X obj 279 49 inlet~;
#X obj 279 173 outlet~;
#X obj 279 132 *~;
#X obj 297 111 line~;
#X obj 552 49 inlet;
#X obj 552 202 memo \$0-memo 1 \$1;
#X msg 651 183 reset;
#X obj 552 80 route on float reset;
#X obj 396 49 r \$0-on;
#X obj 396 153 s \$0-on_gui_set;
#X obj 199 49 r \$0-on;
#X msg 139 90 \$1 10;
#X msg 297 90 \$1 10;
#X obj 199 70 t f f;
#X obj 552 121 param \$0-on \$0-memo 0 \$2;
#X connect 1 0 4 0;
#X connect 1 1 3 0;
#X connect 2 0 18 0;
#X connect 3 0 2 0;
#X connect 4 0 2 0;
#X connect 5 0 7 0;
#X connect 7 0 6 0;
#X connect 8 0 7 1;
#X connect 9 0 11 0;
#X connect 11 0 10 0;
#X connect 12 0 11 1;
#X connect 13 0 16 0;
#X connect 15 0 14 1;
#X connect 16 0 23 0;
#X connect 16 1 23 0;
#X connect 16 2 15 0;
#X connect 17 0 1 0;
#X connect 19 0 22 0;
#X connect 20 0 8 0;
#X connect 21 0 12 0;
#X connect 22 0 20 0;
#X connect 22 1 21 0;
#X coords 0 -1 1 1 30 30 2 50 50;
